<?xml version="1.0" ?><svg id="Слой_1" style="enable-background:new 0 0 100 100;" version="1.1" viewBox="0 0 100 100" xml:space="preserve" xmlns="http://www.w3.org/2000/svg" xmlns:xlink="http://www.w3.org/1999/xlink"><g><path d="M94.5,61c0,0.1-0.1,0.3-0.1,0.4C94.5,61.3,94.5,61.2,94.5,61z"/><path d="M65.9,38.6c0.1,0.1,0.2,0.2,0.3,0.3C66.1,38.8,66,38.7,65.9,38.6z"/><path d="M94.9,59.2c-0.1,0.6-0.2,1.2-0.4,1.9C94.7,60.5,94.9,59.8,94.9,59.2z"/><path d="M93.4,62.4c0.5-0.9,0.9-1.9,1.1-3c0.1-0.4-0.1-0.3-0.3-0.1c0.2-0.8,0.3-1.5,0.1-2.2c0.1,0,0.1,0,0.1-0.1   c-0.4-2-1.4-4-2.8-5.7c-0.3-0.4-0.9-0.5-0.5,0.1l0.1,0.1c0.1-0.2,0.2-0.2,0.3-0.1c0.1,0.2,0.1,0.5,0.2,0.7c0,0.1,0.1,0.1,0.1,0.2   c0.1,0,0.1,0.1,0.2,0.3c0.1,0.2,0.2,0.4,0.2,0.5c0,0-0.1,0-0.1,0.1L92,53.3c-0.1-0.1-0.3-0.3-0.4-0.4c0-0.3,0-0.6-0.1-0.9   c0-0.3-0.2-0.1-0.3,0.2c-0.1-0.1-0.1-0.3-0.2-0.4c0,0.1-0.1,0.2-0.1,0.3c0.2,0.7,0.6,1.4,0.8,2.2c-0.3-0.3-0.6-0.7-0.8-1   c0-0.1-0.1-0.2-0.1-0.4c-0.3-0.7-0.7-1.4-1-2.1c-0.3-0.6,0.2-0.7,0.4-0.2c0.1,0.2,0.2,0.4,0.3,0.6c0,0,0,0,0.1-0.1c0,0,0,0-0.1,0   c0,0,0.1,0,0.1-0.1c0-0.2-0.3-0.5-0.4-0.6c-0.8-0.6-1.8-1-2.8-1c-0.1,0-0.1,0.2,0,0.3c-0.1,0-0.2,0-0.4,0c0,0-0.1,0-0.1,0.1   c0-0.1-0.1-0.2-0.1-0.1c-0.1,0.1-0.2,0.1-0.3,0.2L86.4,50c0,0,0,0,0-0.1c0-0.3,0-0.5-0.1-0.4c-0.1,0-0.1,0.1-0.2,0.1   c-0.1-0.1-0.3-0.2-0.3-0.1c-0.1,0,0,0.1,0,0.2c-0.4-0.1-0.8,0-1.2,0.2c-0.1-0.1-0.2-0.2-0.3-0.2c0.5-0.4,1.2-0.7,1.9-0.7   c0.9-0.1,1.8,0.1,2.7,0.5c0.9,0.2,1.7,0.7,2.5,1.4c0,0,0.1,0.1,0.2,0.1l0.1,0.1c0.5,0.5,1,1.1,1.5,1.8c1.2,1.9,1.8,4.2,1.7,6.3   c0.3-2.9-0.5-6-2.2-8.4c-0.3-0.4-0.6-0.7-1-1.1c-0.7-0.5-1.4-1-2.2-1.3c-0.5-0.2-1.1-0.4-1.8-0.5c-0.3,0-0.7,0.1-1,0.1   c-0.2,0-0.4,0.1-0.6,0.1c-0.1,0-0.2,0.1-0.3,0.1c-0.4,0.1-0.8,0.2-1.2,0.4c-0.3,0.3-0.7,0.7-1.1,1c-0.3,0.4-0.6,0.9-0.7,1.5   c0,0.2,0,0.5,0,0.7c0.1,0.3,0.2,0.6,0.4,1c0.5,0.5,1.1,1,1.8,1.3c0.2,0.1,0.5,0.2,0.7,0.2c-0.2-0.2-0.3-0.5-0.4-0.7   c0,0,0-0.1,0-0.2c0-0.1,0-0.1-0.1-0.2c-0.1-1.1,0.9-2.1,2-2c0.8,0.1,1.3,0.6,1.5,1.2c-0.2,1.9-1.1,3.3-2.4,4.2   c-0.6,0.2-1.2,0.2-1.8,0.2c-3.3-0.1-5.1-2.8-6.6-5.5c-0.5-1.5-0.8-3-1.2-4.5c-1.1-4.1-2.4-8.3-5.5-11.4c-1.1-1.1-2.3-1.9-3.7-2.6   C66,31.6,64.1,31,62,31.1c-2.5,0.1-6.9,0.4-9.5,2.1c-0.8,0.3-1.7,0.7-2.3,1.2c-0.6-0.4-1.5-0.8-2.3-1.1c-2.6-1.7-7-2-9.5-2.1   c-2.2-0.1-4,0.5-5.5,1.7c-1.3,0.7-2.6,1.5-3.7,2.6c-3.1,3.1-4.4,7.3-5.5,11.4c-0.4,1.5-0.8,3-1.2,4.5c-1.5,2.7-3.4,5.4-6.6,5.5   c-0.5,0-1.2,0-1.8-0.2c-1.3-0.9-2.2-2.3-2.4-4.2c0.2-0.6,0.7-1,1.5-1.2c1.1-0.2,2,0.9,2,2c0,0.1-0.1,0.1-0.1,0.2s0,0.2,0,0.2   c-0.1,0.3-0.2,0.5-0.4,0.7c0.2-0.1,0.5-0.1,0.7-0.2c0.7-0.3,1.2-0.8,1.8-1.3c0.2-0.3,0.3-0.6,0.4-1c0.1-0.2,0.1-0.5,0-0.7   c-0.2-0.5-0.4-1-0.7-1.5c-0.4-0.3-0.8-0.6-1.1-1c-0.4-0.2-0.8-0.3-1.2-0.4c-0.1,0-0.2-0.1-0.3-0.1c-0.2-0.1-0.4-0.1-0.6-0.1   c-0.3,0-0.7-0.1-1-0.1c-0.6,0.2-1.2,0.3-1.8,0.5c-0.9,0.3-1.6,0.7-2.2,1.3c-0.4,0.4-0.7,0.8-1,1.1C3.9,55.5,4.1,63,9,66.5   c1,0.7,2.1,1.2,3.2,1.5c2.1,1.5,6,0.9,8.3,0.2c0.1,0,0.1-0.1,0.2-0.1c3.6-0.5,7.3-3,10-4.8c1.5-1,2.9-2.2,4.2-3.5   c0.4-0.3,0.8-0.6,1.2-1c0.8-0.7,1.6-1.5,2.3-2.3c0.1-0.1,0.2-0.1,0.3-0.2c0.2-0.2,0.4-0.5,0.5-0.7c1.2-1.4,2.3-2.9,3.1-4.5   c2.5-4.5,2.9-11,7.6-13.9c4.6,3,5,9.4,7.5,13.9c0.9,1.6,2,3.1,3.1,4.5c0.2,0.2,0.3,0.5,0.5,0.7c0.1,0.1,0.2,0.2,0.3,0.2   c0.7,0.8,1.5,1.6,2.3,2.3c0.4,0.3,0.8,0.7,1.2,1c1.3,1.3,2.7,2.4,4.2,3.5c2.7,1.8,6.5,4.3,10,4.8c0.1,0,0.1,0.1,0.2,0.1   c2.2,0.7,6.2,1.4,8.3-0.2c1.1-0.3,2.2-0.8,3.2-1.5c1.8-1.3,3-3,3.7-4.9c-0.2,0.4-0.3,0.7-0.6,1C93.5,62.4,93.5,62.4,93.4,62.4z    M83.6,51c-0.1,0-0.1,0-0.1,0.1c0,0.1,0,0.1,0,0.2c0,0.2-0.1,0.3-0.1,0.5c-0.1-0.1-0.1-0.2-0.1-0.2c0-0.3,0.1-0.6,0.3-0.8   C83.6,50.9,83.6,50.9,83.6,51z M84.9,51.1v0.1c0,0.1-0.1,0.3-0.1,0.4c-0.1,0.2-0.2,0.5-0.1,0.7c-0.1-0.3-0.2-0.6-0.2-1   C84.6,51.1,84.7,50.9,84.9,51.1C84.9,51,84.9,51,84.9,51.1z M16.7,51.7c0-0.2,0-0.3-0.1-0.5c0-0.1,0-0.1,0-0.2c0,0,0,0,0,0   c0.1,0.2,0.2,0.5,0.2,0.6L16.7,51.7z M16.5,50.8c0,0,0,0.1,0.1,0.1c0,0,0,0-0.1,0C16.5,50.9,16.5,50.9,16.5,50.8z M46.4,33.2   c0.1,0,0.1,0.2,0.1,0.3c-0.4-0.1-0.8-0.2-1.2-0.2c0.2-0.2,0.3-0.4,0.2-0.5C45.8,32.9,46.1,33.1,46.4,33.2z M39.1,32.3   c0.5,0,1,0.1,1.5,0.1c0.8-0.1,1.6-0.1,2.4,0.1c0.8,0,1.6,0,2.4,0.3c-0.7-0.1-1.4-0.1-2.1-0.1c0.2,0.2-0.5,0.4-0.7,0.3   c-1.4-0.4-2.9-0.1-4.4,0.1c0.2-0.1,0.4-0.2,0.6-0.3C38.9,32.7,39,32.5,39.1,32.3z M39.1,36.3c-2.4,1.1-4.3,3.1-6.4,4.8   c-0.4,0.3-0.5,0.1-0.4-0.2c-0.3,0.4-0.7,0.8-0.9,1.3c-0.1,0.1-0.2,0.2-0.3,0.3c0.4-0.6,0.8-1.1,1.2-1.6c0,0,0,0,0,0c0,0,0,0,0,0   c0,0,0,0,0,0c0.1-0.2,0.3-0.3,0.4-0.4c0,0-0.1,0.1-0.1,0.1c0.5-0.4,0.9-0.8,1.4-1.2c0.6-0.6,1.2-1.2,1.8-1.8   c0.2-0.1,0.4-0.2,0.6-0.3c-0.2,0.2-0.4,0.4-0.6,0.6c0.4-0.3,0.7-0.6,1.1-0.8c0.3-0.2,0.7-0.5,1-0.7c0.4-0.3,0.8-0.6,1.3-0.8   c-0.5,0.2-1.1,0.4-1.6,0.6c0.5-0.4,1.1-0.7,1.6-1c0.4-0.1,0.8-0.2,1.2-0.3c1.4-0.6,2.7-1.2,4-1.3c0.5,0,1,0.4,0.3,0.4   c-0.7,0.1-1.4,0.3-2.1,0.5c0,0,0-0.1-0.1,0C41.4,34.7,40.2,35.4,39.1,36.3z M41.4,35.8c-0.6,0.3-1.2,0.6-1.7,1   C40.2,36.4,40.8,36,41.4,35.8z M46.4,36.3c-0.6,0.1-1.2,0.2-1.8,0.4c0.5-0.2,0.9-0.4,1.4-0.5c0.1,0,0.2-0.1,0.3-0.2h0.1   c0.1,0,0.1,0,0.2,0C46.5,36.1,46.5,36.2,46.4,36.3z M47.7,37.6l-0.1,0.1c-0.1,0.1-0.2,0.2-0.4,0.4c-0.1,0.1-0.2,0.2-0.3,0.3   c-0.2,0.3-0.5,0.5-0.7,0.8c-0.1,0.2-0.3,0.3-0.4,0.5c0.1-0.2,0.1-0.2,0.1-0.3c0.1-0.2,0.2-0.4,0.3-0.6C46.7,38.3,47.1,38,47.7,37.6   z M44.9,37.8c0.2,0,0.6-0.5,0.7-0.7c0.2,0,0.4-0.1,0.6-0.1c0,0.1,0,0.1,0,0.2c-1.3,0.6-2.5,1.4-3.6,2.3c0.6-0.6,1.2-1.1,1.8-1.6   C44.6,37.9,44.7,37.8,44.9,37.8z M45.1,41.7c0.1-0.1,0.1-0.1,0.2-0.2c-0.2,0.2-0.3,0.5-0.5,0.7C44.9,42,45,41.9,45.1,41.7z    M44.2,40.5c-0.3,0.4-0.5,0.7-0.8,1.1c0.2-0.3,0.3-0.6,0.5-0.9C44,40.4,44.2,40.4,44.2,40.5z M26.8,63.7c0,0-0.1,0.1-0.1,0.2   c-0.2,0.1-0.5,0.3-0.7,0.4c0.3-0.3,0.5-0.6,0.8-0.9C26.7,63.5,26.8,63.6,26.8,63.7z M27.2,60c-0.4,0.3-0.8,0.5-1.2,0.8   c-0.3,0.1-0.5,0.2-0.8,0.3c0.2-0.1,0.3-0.3,0.5-0.4c-0.1,0.3,0.7-0.3,0.8-0.5c0-0.1,0-0.1,0.1-0.2c0.2-0.2,0.4-0.3,0.6-0.5   c0.2-0.1,0.3-0.1,0.5-0.2c0.1-0.1,0.2-0.3,0.3-0.4c0.2-0.2,0.4-0.3,0.6-0.5c-0.1,0.1-0.1,0.2-0.2,0.3C28,59.1,27.6,59.6,27.2,60z    M27.7,61.3c-0.2,0.2-0.3,0.5-0.5,0.7c-0.4,0.2-0.8,0.4-1.2,0.6C26.6,62.2,27.1,61.7,27.7,61.3z M22.1,64.2   c0.3-0.2,0.5-0.5,0.7-0.8c0.7-0.4,1.5-0.8,2.2-1.1c0,0.1,0,0.2,0,0.3c0,0,0,0-0.1,0.1c0,0-0.1,0-0.1,0.1c-0.4,0.3-0.7,0.6-1.1,0.8   C23.2,63.8,22.6,64,22.1,64.2z M23,60.6c0,0.1-0.1,0.2-0.1,0.2c-0.3,0.3-0.6,0.5-0.9,0.7C22.4,61.2,22.7,60.9,23,60.6z M21.8,60.8   c0.2-0.3,0.4-0.6,0.7-0.8l0.1-0.1C22.3,60.2,22.1,60.5,21.8,60.8z M24,62.1c0.2-0.2,0.4-0.3,0.6-0.4c0,0,0,0,0,0   C24.4,61.8,24.2,62,24,62.1z M24.7,59.8c-0.5,0.4-1,0.8-1.5,1.3c0.3-0.3,0.6-0.6,0.9-0.9c0.3-0.2,0.5-0.3,0.5-0.5   c0.1-0.1,0.1-0.2,0.2-0.3c0.1-0.1,0.1-0.2,0.2-0.2c0,0.1,0.1,0.1,0.2,0C25.1,59.4,24.9,59.6,24.7,59.8z M24.3,52.5   c0-0.1,0.1-0.2,0.2-0.4c0,0.4-0.1,0.7-0.2,1.1c-0.2,0.3-0.4,0.6-0.6,0.9c0.2-0.4,0.4-0.9,0.5-1.3C24.4,52.6,24.4,52.5,24.3,52.5z    M24.8,50.8c0-0.1,0-0.2,0.1-0.3C24.9,50.7,24.8,50.7,24.8,50.8z M25.1,53.2c0.4-1.6,0.8-3.2,1.3-4.7c-0.4,1.7-0.8,3.4-1.3,5.1   c-0.1,0.2-0.2,0.4-0.3,0.6c-0.1,0-0.2,0.1-0.4,0.1c0.1-0.3,0.1-0.5,0.2-0.8C24.8,53.4,24.9,53.3,25.1,53.2z M25,47   c0.2-0.4,0.5-1.2,0.8-1.7c0,0.2-0.1,0.4-0.1,0.6c-0.1,0.3-0.3,0.6-0.4,0.8l-0.1,0.1c0,0.1,0,0.2,0,0.3c0,0.2-0.3,0.5-0.5,0.6h-0.1   C24.8,47.4,24.9,47.2,25,47z M24.5,47.2c0-0.1,0-0.2,0.1-0.3c0-0.2,0.2-0.3,0.3-0.4C24.7,46.7,24.6,46.9,24.5,47.2z M26,43   c0.1-0.3,0.3-0.7,0.5-1c-0.2,0.8-0.4,1.5-0.5,2.3c-0.2,0.2-0.4,0.5-0.6,0.9c0-0.2,0.1-0.4,0.1-0.8c0.1-0.4,0.2-0.7,0.5-1   C26.2,43.1,26.2,43,26,43z M29,38.3c-0.2,0-0.5,0.3-0.6,0.4c-0.5,0.8-1,1.6-1.3,2.4c0.1-0.2,0.1-0.5,0.2-0.7c0-0.1,0.1-0.2,0.1-0.3   c0.7-1,1.4-2,2.3-3.1c0.2-0.2,0.2-0.3,0.1-0.4c0.2-0.1,0.3-0.2,0.4-0.3c0.2-0.3,0.4-0.5,0.6-0.7c0,0,0,0,0.1-0.1   c0.1-0.1,0.1-0.2,0.2-0.2l0.1-0.1c-0.2,0.2-0.2,0.5-0.1,0.4c-0.9,1.3-1.7,2.7-2.4,4.1c0,0,0,0-0.1,0c0,0,0,0,0,0.1l-0.1,0.1h0.1   c-0.2,0.4-0.4,0.9-0.6,1.3c-0.6,1-1.1,2-1.6,3.1c0.1-0.7,0.3-1.4,0.4-2.1c0.4-0.7,0.8-1.4,1.2-2c0.1-0.1,0.2-0.2,0.4-0.3   c0-0.1,0.1-0.2,0.1-0.3c0-0.1,0.1-0.2,0.2-0.3c0.1-0.2,0.2-0.5,0.3-0.7c0.1-0.1,0.1-0.1,0.1-0.2c0.1-0.2,0.2-0.4,0.3-0.6   C29.3,38,29.1,38.2,29,38.3z M27.5,39.4c0.7-1.2,1.4-2.3,2.4-3.3c-0.1,0.1-0.1,0.2-0.2,0.4l-0.1,0.1c-0.1,0.1-0.1,0.2-0.1,0.2   s0,0.1-0.1,0.1c-0.1,0-0.1,0.1-0.2,0.1C28.6,37.7,28,38.5,27.5,39.4z M32.4,35.9c-0.2,0.2-0.4,0.3-0.6,0.5   c-0.2,0.2-0.4,0.4-0.6,0.5c0.4-0.5,1-1.1,1.5-1.6c0.7-0.5,1.4-1,2.1-1.4c-0.7,0.5-1.4,1-2,1.5c0.3-0.2,0.6-0.4,1-0.5   c0.1-0.2,0.2-0.3,0.3-0.4c0.4-0.3,0.9-0.4,1.4-0.6c-0.1,0.1-0.3,0.2-0.4,0.3c-0.1,0.1-0.2,0.4-0.3,0.6c-0.3,0.1-0.5,0.2-0.8,0.4   h-0.1c-0.1,0.2-0.3,0.4-0.4,0.4c-0.7,0.2-1.2,0.9-1.5,1.6c0.3-0.2,0.5-0.5,0.8-0.7c-0.3,0.4-0.7,0.7-1,1.1   c-0.2,0.4-0.3,0.8-0.5,1.1c-0.1,0.2-0.6,0.5-0.7,0.3c0.2-0.5,0.5-0.9,0.7-1.4c0-0.1,0.1-0.1,0.1-0.2c0.4-0.7,0.8-1.3,1.3-1.8   C32.6,35.7,32.5,35.8,32.4,35.9z M32.2,38.1c1-0.9,2.3-1.6,3.7-2.2c-0.4,0.3-0.7,0.7-1.1,1.1c-1,0.5-2.3,1.2-2.9,2.1   c-0.2,0.2-0.9,0.6-0.7,0.2c0,0,0,0-0.1,0.1H31c0.9-1.2,1.9-2.4,3-3.4C33.4,36.7,32.8,37.4,32.2,38.1z M34.2,37.5   c-0.7,1-1.5,1.8-2.1,2.7C32.7,39.3,33.4,38.4,34.2,37.5C34.2,37.5,34.2,37.5,34.2,37.5z M32.2,42c0.2-0.2,0.4-0.4,0.6-0.6   C32.6,41.6,32.4,41.8,32.2,42C32.3,42,32.2,42,32.2,42z M32.9,42.6c-0.5,0.7-1,1.4-1.4,2.1c-0.2,0.3,0,0.3,0.2,0.2   c-0.1,0.1-0.1,0.2-0.2,0.3c-0.1,0.1-0.2,0.2-0.2,0.2c-0.1,0.2-0.2,0.4-0.3,0.6c-0.4,0.6-0.8,1.3-1.2,1.9c-0.2,0.1-0.5,0.4-0.6,0.5   c-0.1,0.5-0.3,0.9-0.4,1.4c-0.3,0.5-0.6,1-0.9,1.5c0-0.1,0-0.1,0-0.2c-0.3,0.3-0.7,0.5-0.6,0.1c0.2-0.4,0.3-0.9,0.5-1.4   c0.1-0.2,0.3-0.5,0.5-0.6c0.1,0,0.4-0.2,0.3,0.1c1-1.8,2.1-3.6,3.2-5.4C32.2,43.5,32.6,43,32.9,42.6z M35.1,39.5   c0.6-0.5,1.1-0.9,1.7-1.3c-1.3,1.1-2.5,2.3-3.7,3.5C33.7,40.9,34.3,40.2,35.1,39.5z M33.5,40.8c0.3-0.2,0.6-0.5,0.8-0.7   c-0.2,0.2-0.5,0.4-0.6,0.6C33.6,40.8,33.5,40.8,33.5,40.8z M34.3,42.5c-0.7,1-1.3,2.1-1.8,3.1c0.1-0.2,0.1-0.4,0.2-0.6   c0-0.1-0.1-0.1-0.3,0c0.2-0.4,0.5-0.8,0.7-1.2C33.5,43.4,33.9,42.9,34.3,42.5z M34.1,48.6c0.3-0.5,0.5-1.1,0.8-1.6   c0.2-0.3,0.4-0.4,0.4-0.3c0,0.1,0,0.1,0,0.2c0,0.1,0,0.2-0.1,0.3c-0.2,0.5-0.5,1.1-0.8,1.6l-0.1,0.1c0.1-0.2,0.2-0.3,0.3-0.5   C34.8,48.1,34.4,48.4,34.1,48.6z M32.9,50.8c-0.1,0.2-0.3,0.5-0.4,0.7c0.8-1.9,1.7-3.8,2.5-5.8c0.5-0.6,1-1.2,1.5-1.8   c-0.1,0.2-0.3,0.4-0.4,0.6C34.8,46.5,33.8,48.6,32.9,50.8z M31.2,51.4c-0.2,0.2-0.3,0.4-0.5,0.6c0.2-0.4,0.4-0.8,0.6-1.3   C31.4,50.9,31.3,51.3,31.2,51.4z M29.8,53.3c-0.4,0.6-0.7,1.2-1.1,1.8V55c0.7-1.2,1.3-2.4,1.8-3.7c0.3-0.5,0.6-0.9,0.9-1.4   C30.7,50.9,30.2,52.1,29.8,53.3z M30.6,55.4c-0.1,0.2-0.1,0.4-0.2,0.6c-0.1,0.2-0.3,0.4-0.4,0.5c0.1-0.3,0.3-0.6,0.4-0.9   C30.5,55.5,30.5,55.4,30.6,55.4z M28.3,56.4c0.3-0.2,0.5-0.4,0.7-0.5c-0.4,0.5-0.8,1-1.3,1.5v-0.1c0.1-0.1,0.1-0.2,0.2-0.3   C28.1,56.8,28.2,56.6,28.3,56.4z M27.9,55.1c0.1-0.5,0.3-1,0.4-1.5C28.2,54.1,28.1,54.6,27.9,55.1C28,55.1,28,55.1,27.9,55.1z    M28.8,56c0-0.1,0.1-0.3,0.1-0.4c0.1-0.2,0.3-0.4,0.5-0.6c0.1,0,0.1-0.1,0.2-0.1c-0.2,0.2-0.4,0.5-0.6,0.8   C28.9,55.8,28.9,55.9,28.8,56z M30,50.8c0,0,0,0.1-0.1,0.1c0-0.2,0.1-0.4,0.1-0.7c0-0.1,0-0.1,0-0.1c0-0.1,0.1-0.2,0.1-0.4   c0.4-1.1,0.9-2.2,1.4-3.2C31.1,48.1,30.6,49.5,30,50.8z M31.6,48.2c0.2-0.2,0.3,0.3,0.1,0.6c-0.3,0.5-0.6,1-0.9,1.6   c0.2-0.4,0.3-0.9,0.5-1.4C31.4,48.7,31.5,48.5,31.6,48.2z M29.5,50c0.1-0.4,0.3-0.8,0.4-1.2c0.1-0.1,0.2-0.2,0.2-0.3   C29.9,49,29.7,49.5,29.5,50z M29.6,51.5c0.1-0.2,0.2-0.3,0.3-0.5c-0.2,0.4-0.4,0.8-0.5,1.3C29.4,52,29.5,51.8,29.6,51.5z    M31.6,49.6c-0.1-0.1,0-0.3,0.1-0.4c0.4-0.7,0.8-1.4,1.2-2.1v0.1c-0.1,0.3-0.2,0.5-0.3,0.8C32.2,48.5,31.9,49,31.6,49.6z    M31.9,49.7c0,0.1-0.1,0.2-0.1,0.3c-0.1,0.1-0.2,0.3-0.3,0.5C31.6,50.2,31.7,50,31.9,49.7z M34.1,44.8c-0.5,0.7-1,1.3-1.5,2   c-0.4,0.6-0.3-0.4-0.1-0.6c0.3-0.4,0.6-0.9,0.9-1.3c0.1,0.1,0.6-0.3,0.7-0.5c0.8-1.9,2.6-3.4,4.3-4.6c-0.3,0.3-0.6,0.6-0.9,1   l-0.1,0.1L37.3,41C36.1,42.2,35.1,43.5,34.1,44.8z M26.8,49.3c-0.1,0.3-0.2,0.7-0.3,1c-0.1,0.4-0.1,0.7-0.2,1.1   c-0.1,0.1-0.1,0.2-0.2,0.3c-0.1,0.4-0.2,0.7-0.3,1.1c0,0.1-0.1,0.2-0.2,0.3c0.4-1.2,0.7-2.5,1-3.7C26.7,49.4,26.7,49.4,26.8,49.3z    M26.2,46.1c0.1-0.4,0.2-0.8,0.3-1.2c0,0.1,0.1,0.1,0.1,0.2C26.5,45.4,26.3,45.7,26.2,46.1z M26.9,54.7c0,0.2,0.2,0.2,0.3,0.1   c0,0,0,0,0,0c-0.4,0.8-0.8,1.6-1.2,2.4c-0.1,0.1-0.2,0.3-0.3,0.4C26.1,56.6,26.5,55.7,26.9,54.7z M27.9,42.8   c0.4-0.9,0.7-1.9,1.2-2.8H29c0.4-0.8,0.8-1.4,1.2-2.1c0,0,0.1,0,0.2-0.1c0.1-0.2,0.3-0.4,0.5-0.6c0.1,0,0.1,0.1,0.2,0.1   c-0.1,0.2-0.2,0.3-0.3,0.5c-0.1,0.2-0.3,0.4-0.4,0.6c0.1,0,0.1-0.1,0.2-0.1c-0.7,1.4-1.4,2.9-2,4.4l-0.1,0.1   c-0.4,0.6-0.7,1.3-1.1,2c0,0.1,0,0.3-0.1,0.4c-0.2,0.3-0.3,0.7-0.5,1c0.4-1.1,0.8-2.2,1.3-3.2C27.9,43.1,27.8,43.1,27.9,42.8z    M27.8,48.7c0,0.2-0.1,0.4-0.1,0.5c-0.1,0.2-0.3,0.5-0.4,0.7C27.5,49.6,27.7,49.2,27.8,48.7z M27.1,48.9c0,0,0,0,0-0.2   c0.1-0.1,0.1-0.2,0.2-0.3C27.2,48.6,27.2,48.8,27.1,48.9z M27,47.8c0.1-0.3,0.1-0.5,0.2-0.8c0.1-0.3-0.1-0.3-0.2-0.2   c0.2-0.6,0.5-1.3,0.8-2c0,0.2,0.1,0.3,0.1,0.3c0,0,0,0,0.1,0C27.6,46,27.3,46.9,27,47.8z M28.1,45.7c0.1-0.3,0.2-0.5,0.4-0.8   c0.1-0.1,0.2-0.2,0.3-0.3c0.2-0.4,0.4-0.7,0.6-1c-0.2,0.4-0.3,0.8-0.5,1.2c0,0-0.1,0.1-0.2,0.2c-0.4,0.6-0.7,1.2-0.9,1.9   C27.9,46.5,28,46.1,28.1,45.7z M30.1,41.1c-0.2,0.2-0.3,0.5-0.4,0.7c-0.1,0-0.2,0-0.3,0.3c-0.2,0.3-0.3,0.6-0.4,0.8   c0.2-0.6,0.5-1.3,0.8-1.9C30,40.9,30.2,40.8,30.1,41.1z M30,40.5C30,40.5,30,40.4,30,40.5L30,40.5z M30.4,42.5   c-0.4,0.8-0.8,1.6-1.2,2.4c0-0.1,0-0.1,0-0.1C29.6,44,30,43.3,30.4,42.5z M29.8,42.2C29.8,42.2,29.8,42.1,29.8,42.2   c0.2-0.4,0.4-0.6,0.6-0.9C30.2,41.6,30,41.9,29.8,42.2z M29.2,47c0.1-0.5,0.2-0.9,0.3-1.3c0.1,0.1,0.5-0.2,0.7-0.5   C29.9,45.8,29.5,46.4,29.2,47c0,0,0.1-0.2,0.2-0.4C29.3,46.8,29.3,46.9,29.2,47z M29.6,45.3c0.1-0.2,0.1-0.4,0.2-0.6   c-0.2,0.3-0.4,0.7-0.5,1c0.2-0.5,0.5-1,0.8-1.5l0.1-0.1c0.1-0.1,0.2-0.2,0.3-0.3C30.1,44.3,29.9,44.8,29.6,45.3z M30.2,43.8   c0.1-0.2,0.2-0.5,0.4-0.7c0,0,0,0,0.1-0.1C30.5,43.3,30.4,43.5,30.2,43.8z M24.3,55.3c-0.1,0.2-0.2,0.4-0.3,0.6   c0-0.2,0.1-0.4,0.1-0.5C24.2,55.3,24.3,55.3,24.3,55.3z M24.1,56.8c0-0.1,0.1-0.2,0.1-0.3c0.6-0.9,1.2-1.9,1.7-2.9   c0,0.2,0,0.4-0.1,0.5c0,0.5-0.2,0.9-0.4,1.2c-0.6,0.8-1.2,1.7-1.9,2.5c-0.1,0-0.1,0.1-0.2,0.1c0.1-0.2,0.3-0.4,0.4-0.6   C23.8,57.1,24,57,24.1,56.8z M25.6,56.5c-0.2,0.6-0.5,1.2-0.8,1.8c-0.1,0-0.2,0.1-0.3,0.2c0.2-0.4,0.4-0.9,0.6-1.3   C25.3,57,25.4,56.8,25.6,56.5z M28.6,59.4c0.2-0.2,0.3-0.4,0.5-0.7c0.1-0.1,0.1-0.2,0.1-0.2c0.3-0.2,0.6-0.3,1-0.5   c0.1-0.1,0.1-0.2,0.2-0.3c0.1,0,0.2-0.1,0.3-0.2v0.1c-0.5,0.5-1,0.9-1.5,1.4c-0.1,0-0.1-0.1-0.1,0C28.9,59.2,28.7,59.3,28.6,59.4   C28.5,59.5,28.5,59.4,28.6,59.4z M30.9,57.4c0,0-0.1,0.1-0.1,0.1C30.8,57.5,30.8,57.4,30.9,57.4z M31.1,57.1   c0.1-0.3,0.1-0.6,0.2-0.8c0.2-0.2,0.4-0.4,0.6-0.6c-0.2,0.3-0.3,0.7-0.5,1c0.2-0.2,0.3-0.4,0.5-0.6c0,0.1,0.1,0.2,0.3,0   c-0.4,0.4-0.7,0.8-1.2,1.2c0,0,0,0-0.1,0.1C31,57.3,31.1,57.2,31.1,57.1z M34.2,53.6c-0.6,0.5-0.9,1-1.2,1.5   c-0.2,0.3-0.5,0.6-0.7,0.9c0,0-0.1,0.1-0.1,0.1c0-0.1,0.1-0.1,0.1-0.2c0.1-0.3,0.3-0.6,0.4-0.9C33.2,54.5,33.7,54.1,34.2,53.6z    M32.4,56.9c0.1-0.1,0.3-0.2,0.4-0.3c0,0.3,0.1,0.2,0.3,0.2c-0.3,0.3-0.6,0.5-1,0.7C32.2,57.3,32.3,57.1,32.4,56.9z M33.6,57.2   c0.1,0,0.1-0.1,0.2-0.1c0.1,0.2-0.1,0.7-0.2,0.8c-0.5,0.4-1,0.8-1.5,1.2C32.5,58.4,33,57.8,33.6,57.2z M34.3,57.6   c0.3-0.3,0.6-0.6,0.8-0.9c0,0.1,0,0.1-0.1,0.2c-0.2,0.2-0.4,0.4-0.5,0.6c-0.1,0.1-0.3,0.2-0.4,0.4C34.2,57.8,34.3,57.7,34.3,57.6z    M34.8,51.6c-0.1,0.1,0,0.2,0,0.2c-0.4,0.6-0.9,1.2-1.4,1.8c0.6-0.9,1.2-1.8,1.8-2.7C35.1,51.1,35,51.4,34.8,51.6z M33.4,52.8   c0.1-0.2,0.3-0.4,0.4-0.6c0.1,0,0.1,0.2,0.1,0.3c-0.1,0.2-0.2,0.4-0.4,0.6C33.5,53,33.5,52.9,33.4,52.8z M32.1,54.8   c-0.3,0.2-0.5,0.4-0.8,0.6c0,0,0,0,0,0c0.5-0.7,0.9-1.4,1.3-2.2c0.1-0.3,0.1-0.3-0.1-0.3c0.5-1,1-1.9,1.6-2.9   c0.5-0.7,1-1.4,1.6-2.1C34.3,50.1,33.1,52.4,32.1,54.8z M37.4,46c0.1-0.1,0.1-0.2,0.2-0.4c0,0.1,0,0.3,0.1,0.4   c0.1-0.1,0.2-0.3,0.3-0.4c0.1-0.2,0.3-0.5,0.4-0.7c0-0.1,0-0.2,0-0.3c0.1-0.1,0.1-0.2,0.2-0.3c0,0.1,0,0.1,0,0.2   c0.2-0.3,0.4-0.6,0.6-0.9c0.4-0.4,0.8-0.7,1.2-1.1c-1,1.3-2,2.5-2.9,3.9C37.5,46.3,37.5,46.1,37.4,46z M40.2,45   c-0.8,1.1-1.6,2.2-2.3,3.4c0,0.1-0.1,0.1-0.1,0.2c0,0,0,0,0-0.1c-0.3,0.5-0.6,0.9-0.9,1.4c1-2,2.2-3.8,3.6-5.6   C40.4,44.5,40.3,44.8,40.2,45z M40.6,46c-0.4,0.8-0.8,1.6-1.3,2.4c-0.4,0.5-0.9,1.1-1.3,1.6c0.5-0.9,1-1.9,1.6-2.8   c0.3-0.3,0.6-0.7,0.8-1C40.5,46.1,40.5,46,40.6,46z M37.6,51.2c-0.3,0.4-0.5,0.8-0.8,1.2c0.1-0.3,0.3-0.6,0.4-0.9   c0-0.1,0-0.2,0-0.2c0.1-0.1,0.2-0.2,0.3-0.3C37.4,51.2,37.5,51.3,37.6,51.2z M36.8,47.5c-0.1,0.2-0.3,0.4-0.4,0.6   c0-0.1,0-0.1,0-0.1c0.1-0.2,0.2-0.4,0.2-0.5c0.1-0.1,0.1-0.2,0.2-0.4C36.8,47.2,36.8,47.4,36.8,47.5z M37.6,51.9   c0.2-0.2,0.4-0.3,0.5-0.5c0.1-0.2,0.2-0.4,0.3-0.6c-0.1,0.1-0.2,0.2-0.3,0.3c0.3-0.4,0.6-0.9,0.9-1.3c0.2-0.3,0.4-0.7,0.6-1   l0.1-0.1c0.1-0.1,0.1-0.2,0.2-0.3c0.4-0.5,0.7-1.1,1.1-1.6c-1,2.2-2.3,4.3-3.7,6.2c-0.4,0.4-0.8,0.8-1.2,1.1   C36.6,53.3,37.1,52.6,37.6,51.9z M40.2,49.7c0,0.2-0.1,0.3-0.2,0.4c-0.1,0.1-0.2,0.3-0.4,0.4C39.8,50.3,40,50,40.2,49.7z    M40.6,50.8c0-0.1,0-0.1,0-0.2c0.1-0.2,0.2-0.4,0.3-0.5c0,0,0,0.1,0,0.1c0.6-0.9,1-1.9,1.5-2.8c0.3-0.6,0.7-0.4,0.4,0.2   c-0.1,0.2-0.2,0.5-0.3,0.7c-0.3,0.1-0.5,0.3-0.6,0.5c0,0.1-0.1,0.2-0.1,0.3c-0.6,0.9-1.2,1.8-1.8,2.6   C40.2,51.4,40.4,51.1,40.6,50.8z M42.2,44.9c0-0.1,0.1-0.2,0.1-0.3c0-0.1,0.1-0.1,0.1-0.2C42.3,44.5,42.3,44.7,42.2,44.9z    M42.4,45.8c0,0.1,0,0.2,0,0.2c-0.1,0.2-0.2,0.5-0.3,0.7c-0.1,0.1-0.2,0.3-0.4,0.4C41.9,46.7,42.2,46.2,42.4,45.8z M41.4,42.2   c0.3-0.4,0.6-0.7,1-1.1c0.1-0.1,0.2-0.2,0.3-0.2C42.3,41.3,41.9,41.7,41.4,42.2z M41.8,39.5c-0.2,0.2-0.3,0.3-0.5,0.5   c0,0,0,0,0-0.1c-1.8,1.6-3.4,3.5-4.9,5.4c-0.1,0.1-0.2,0.2-0.2,0.2c-0.2,0.1-0.2-0.6,0-0.8c0.8-1,1.6-2,2.5-3   c0.5-0.4,1.1-0.9,1.6-1.3c0.1-0.1,0.1-0.3,0-0.5c1-0.8,2-1.5,3.1-1.9C42.9,38.6,42.3,39,41.8,39.5z M41.7,38   c-0.4,0.2-0.9,0.5-1.3,0.7c0.1-0.1,0.1-0.1,0.2-0.2c0,0,0.1-0.1,0.1-0.3c0.4-0.2,0.8-0.5,1.1-0.7C41.7,37.8,41.7,38,41.7,38z    M40.6,39.2c-0.2,0.2-0.4,0.3-0.6,0.5c0,0-0.1-0.1-0.1,0c-0.7,0.5-1.4,1.1-2.1,1.7c0.2-0.3,0.4-0.5,0.6-0.7l0.1-0.1   C39.2,40.1,39.9,39.6,40.6,39.2z M39.5,38.1c-1.6,1-3,2.3-4.3,3.7c-0.3,0.3-1,0.4-0.5-0.1c1.5-1.6,3.1-3.1,4.9-4.2   C40.2,37.1,39.8,38,39.5,38.1z M37.3,35.5c0.1-0.1,0.3-0.2,0.4-0.3c0.2-0.2,0.5-0.3,0.8-0.4c0.1,0,0.1,0,0.2,0   c0.3-0.1,0.6-0.2,0.9-0.3c-0.3,0.2-0.6,0.4-0.8,0.5c-0.1,0.2-0.3,0.5-0.5,0.6c-0.2,0.1-0.5,0.2-0.7,0.3c-0.1,0.1-0.3,0.2-0.4,0.3   C37.3,35.9,37.4,35.6,37.3,35.5z M40.8,33.5c0.6,0,1.3,0,1.9,0c-0.6,0-1.2,0-1.8,0.1L40.8,33.5z M37.9,31.9c0.1,0,0.2,0,0.2-0.1   c0.3,0,0.5,0.1,0.6,0.2c-0.2,0.1-0.4,0.2-0.6,0.4c-0.1,0-0.1,0-0.2,0C38,32.2,38,32,37.9,31.9z M37.6,33.4c0.2,0,0.5-0.1,0.7-0.1   c0.1,0,0.1-0.1,0.2-0.1c0,0,0,0,0,0.1c0.5,0,1.1-0.1,1.6-0.1c0.4,0-0.2,0.8-0.5,0.8c-0.3,0-0.6,0-0.9,0c-0.2,0.1-0.4,0.1-0.6,0.2   c0-0.2,0-0.4-0.1-0.3c-0.1,0-0.1,0.1-0.2,0.1c-0.2,0-0.5,0-0.7,0.1C36,34.9,35,35.7,34,36.6c0,0-0.1,0.1-0.2,0.1   c0.6-0.7,1.3-1.4,2-2.1c0.1-0.1,0.2-0.1,0.3-0.2H36C36.5,34.1,37.1,33.7,37.6,33.4z M36.5,33.3c0.1,0,0.1-0.1,0.2-0.1c0,0,0,0,0,0   C36.6,33.2,36.6,33.2,36.5,33.3z M32,34.5c0.8-0.8,1.7-1.5,2.9-1.7c0,0,0,0,0.1,0c0.8-0.3,1.6-0.6,2.5-0.8   c-2.2,0.7-4.2,1.9-5.8,3.6c0.1-0.3,0.1-0.9-0.2-0.5c-0.1,0.2-0.2,0.3-0.3,0.5c-0.1,0-0.1-0.1-0.1-0.1c0.2-0.2,0.4-0.4,0.5-0.6   c-0.1,0-0.1,0.1-0.2,0.1C31.6,34.8,31.8,34.6,32,34.5z M31.1,34.3c0,0-0.1,0-0.1,0.1c0.1-0.1,0.1-0.1,0.2-0.2L31.1,34.3z    M28.9,36.1c0.6-0.6,1.2-1.1,1.8-1.5c-3.3,3-5.1,6.5-6.1,10.4c-0.1,0.4-0.3,0.7-0.4,1.1C25.2,42.5,26.3,38.9,28.9,36.1z M24.6,49.2   c0.1-0.2,0.2-0.3,0.3-0.5c-0.3,1.2-0.7,2.3-1,3.4c-0.1,0.1-0.2,0.2-0.3,0.2c-0.2,0-0.3,0-0.2-0.2C23.9,51.1,24.3,50.2,24.6,49.2z    M23.1,53.7c0.1,0,0.2-0.1,0.4-0.2c-0.1,0.2-0.2,0.5-0.2,0.7c-0.2,0.1-0.2,0.1-0.3,0.1c0.1-0.2,0.1-0.3,0.2-0.5   C23.1,53.8,23.1,53.8,23.1,53.7z M22.9,50.9c0.2-0.4,0.5-0.9,0.7-1.3c-0.1,0.3-0.1,0.6-0.1,0.9c-0.2,0.1-0.4,0.3-0.4,0.5   c-0.4,0.8-0.8,1.7-1.1,2.5C22.3,52.6,22.7,51.7,22.9,50.9z M21.2,58C21.3,58,21.3,58,21.2,58c0,0-0.1,0.1-0.1,0.1c0,0,0,0,0,0   c0,0,0,0,0,0c-0.4,0.4-0.9,0.9-1.3,1.2c0.7-0.9,1.4-1.8,2.1-2.7c0.1-0.1,0.3-0.3,0.4-0.4c0.1-0.2,0.2-0.3,0.2-0.5   c0.1-0.3,0.3-0.6,0.5-0.9c0,0.1,0,0.1,0,0.2c0,0,0,0,0,0.1c-0.2,0.2-0.3,0.3-0.4,0.6c-0.1,0.2-0.2,0.5-0.3,0.7   C21.9,57,21.7,57.6,21.2,58z M22.2,57.7c-0.1,0.3-0.2,0.6-0.3,0.9c-0.2,0.3-0.4,0.5-0.6,0.7c0.1-0.3,0.3-0.6,0.5-0.9   c0.1-0.2,0.2-0.3,0.2-0.5C22.1,57.8,22.1,57.8,22.2,57.7z M20.3,59.8c0,0-0.1,0.1-0.1,0.2C20.2,59.9,20.2,59.9,20.3,59.8z    M17.7,59.1c-0.3,0.3-0.6,0.5-1,0.7c-0.1,0-0.2,0-0.3,0c0.1-0.1,0.3-0.3,0.4-0.4c0.1,0,0.2,0,0.3-0.1   C17.3,59.3,17.5,59.2,17.7,59.1z M17.5,58.7c0,0,0.1-0.1,0.2-0.2c0.1-0.1,0.2-0.4,0.3-0.6c0.1-0.1,0.3-0.1,0.4-0.2   c0.2-0.1,0.3,0.1,0.2,0.2c-0.1,0.2-0.3,0.4-0.5,0.5C17.9,58.5,17.7,58.6,17.5,58.7z M16.5,61c0.6-0.2,1.2-0.5,1.7-0.9   c-0.2,0.2-0.4,0.5-0.6,0.7c0,0.1-0.1,0.1-0.2,0.2c-0.3,0.1-0.6,0.2-0.9,0.3C16.5,61.2,16.5,61.1,16.5,61z M16.8,65.4   c0.1,0.1,0.2,0.1,0.3,0.1c0.1,0.1,0.2,0.2,0.2,0.3c-0.1,0-0.3,0-0.4,0.1C16.9,65.7,16.8,65.6,16.8,65.4   C16.8,65.5,16.8,65.5,16.8,65.4z M17,64.1c-0.1-0.1-0.1-0.1-0.2-0.2c0.2,0,0.4-0.1,0.6-0.1c0,0.1,0.1,0.2,0.1,0.3   C17.4,64.1,17.2,64.1,17,64.1z M17.1,62.3c0.2-0.3,0.5-0.5,0.7-0.8c0.2-0.1,0.4-0.2,0.6-0.4c-0.1,0.1-0.2,0.2-0.3,0.3   c-0.1,0.1-0.2,0.4-0.2,0.6c-0.2,0.2-0.3,0.3-0.4,0.3S17.2,62.3,17.1,62.3z M17.2,60.6c-0.6,0.3-0.2-0.5,0.1-0.6   c0.2-0.1,0.3-0.2,0.5-0.3c-0.1,0-0.2,0.1-0.3,0.1c0.3-0.3,0.6-0.5,0.8-0.8l0.1-0.1c0.2-0.1,0.5-0.2,0.7-0.4   c-0.1,0.1-0.1,0.2-0.2,0.4c0.4-0.3,0.5-0.4,0.7-0.6c0-0.1,0.1-0.1,0.1-0.2c0.2-0.1,0.4-0.3,0.5-0.4c-0.4,0.2-0.8,0.5-1.3,0.6   c0.3-0.3,0.5-0.5,0.8-0.8l0.1-0.1c0.1-0.1,0.2-0.2,0.3-0.3c0.1-0.1,0.2-0.2,0.2-0.3c0.3-0.1,0.5-0.3,0.8-0.4c0.1,0,0.1,0,0.1,0   c-0.8,1.1-1.7,2.2-2.6,3.3C18.2,60,17.7,60.4,17.2,60.6z M19.8,59.4c-0.1,0.1-0.2,0.3-0.2,0.4c-0.1,0-0.1,0.1-0.2,0.1   C19.5,59.7,19.7,59.6,19.8,59.4z M21.4,55c0.5-0.5,0.9-1.1,1.3-1.7c-0.3,0.6-0.5,1.1-0.8,1.7c-0.1,0.1-0.1,0.1-0.2,0.2   C22.1,54.7,21.7,54.8,21.4,55z M21.6,55.3C21.6,55.3,21.6,55.3,21.6,55.3C21.6,55.3,21.6,55.3,21.6,55.3z M18.9,56.9   c0.6-0.5,1.1-1,1.6-1.6c0.3-0.3,0.2-0.5,0-0.5c0.4-0.5,0.7-1,1-1.5c-0.2,0.5-0.4,1.1-0.6,1.6c-0.5,0.6-1.1,1.2-1.6,1.8   c-0.1,0.1-0.1,0.2-0.2,0.2c-0.2,0.2-0.5,0.4-0.7,0.6c-0.1,0-0.2,0-0.3,0c0.1-0.1,0.1-0.1,0.2-0.2c0.1,0,0.2-0.1,0.3-0.1   C18.7,57.2,18.8,57.1,18.9,56.9z M18.4,56.8c0,0-0.1,0.1-0.1,0.1c0.1-0.1,0.3-0.2,0.4-0.3C18.6,56.7,18.5,56.8,18.4,56.8z    M17.8,57.1c0.1,0,0.3-0.1,0.4-0.2c-0.4,0.3-0.9,0.5-1.3,0.7c-0.2,0-0.5,0-0.7-0.1C16.7,57.4,17.3,57.3,17.8,57.1z M17,58.3   c0.1-0.1,0.2-0.1,0.3-0.2c-0.3,0.4-0.7,0.7-1,1.1c-0.2,0.1-0.3,0.1-0.5,0.2c-0.2,0.1-0.3,0-0.2-0.2c0.1-0.2,0.3-0.4,0.5-0.5   C16.4,58.6,16.7,58.5,17,58.3z M12.2,62.7l0.1-0.1c0.1,0,0.2,0.1,0.3,0.1c-0.1-0.1-0.1-0.3-0.2-0.5c0.2,0.3,0.3,0.5,0.4,0.7   c0,0.1-0.1,0.1,0,0C12.6,62.9,12.4,62.8,12.2,62.7z M12.5,60.7c0.2,0.2,0.4,1,0.1,0.9c-0.2-0.4-0.4-0.9-0.6-1.3   C12.2,60.4,12.4,60.6,12.5,60.7z M12,59.1L12,59.1c0.2,0,0.3,0.1,0.5,0.1c0.2,0.3,0.4,0.6,0.7,0.9C13.1,60,13,60,12.9,60   c-0.1-0.1-0.3-0.3-0.3-0.6C12.4,59.3,12.2,59.2,12,59.1z M12.5,60.4c0.3,0,0.5,0,0.8,0v0.1c0,0,0.1,0,0.1,0.1   C13.1,60.5,12.8,60.5,12.5,60.4z M13.5,61.3c0.1,0,0.1,0,0.2,0c0,0.1,0.1,0.1,0.1,0.2c-0.2,0-0.3,0-0.5,0   C13.3,61.4,13.4,61.3,13.5,61.3z M13.5,62.3c0,0.1,0,0.2,0.1,0.3c0.1,0.3,0.3,0.5,0.4,0.8c-0.1,0-0.2-0.1-0.4-0.1   c-0.3-0.4-0.5-0.8-0.7-1.2C13.1,62.2,13.3,62.3,13.5,62.3z M14.6,65.3c0.2,0.2,0.2-0.2,0.1-0.6c0.1,0,0.1,0.1,0.2,0.1   c0.3,0.4,0.6,0.9,1,1.3c-0.6-0.2-1.1-0.5-1.6-0.8c-0.2-0.1-0.3-0.6-0.3-0.8C14.1,64.8,14.3,65.1,14.6,65.3z M14.8,60.9   c-0.1-0.1-0.2-0.2-0.2-0.3c0.2,0,0.5,0,0.7,0c0,0,0,0,0.1,0.1c0,0.1-0.1,0.2-0.1,0.2c-0.1,0-0.2,0-0.2,0   C15,60.9,14.9,60.9,14.8,60.9z M15.8,63c-0.2,0.1-0.5,0.1-0.7,0.2c-0.1-0.1-0.2-0.3-0.3-0.4C15.2,62.9,15.5,63,15.8,63z M14.7,63.6   c0,0,0,0-0.1,0c-0.2-0.3-0.4-0.7-0.6-1.1c0.1,0,0.1,0.1,0.2,0.1C14.4,62.9,14.5,63.3,14.7,63.6z M15.7,61.4c-0.1-0.1-0.1,0-0.2,0.1   c0,0,0,0-0.1,0c0-0.1-0.1-0.2-0.1-0.3c0.2-0.2,0.3-0.2,0.4-0.2c0.1,0.1,0.3,0.2,0.5,0.3c0,0,0,0-0.1,0C16,61.3,15.9,61.4,15.7,61.4   z M15.5,58.8c0.2-0.1,0.3-0.1,0.5-0.2c-0.1,0.1-0.1,0.2-0.2,0.3C15.7,58.8,15.6,58.8,15.5,58.8z M15.7,57.8c0.1,0,0.2,0,0.3,0.1   c-0.2,0.1-0.5,0.2-0.7,0.3C15.4,57.9,15.6,57.7,15.7,57.8z M15.2,59.4c0.2,0,0.3,0.3,0.4,0.6c-0.3-0.2-0.5-0.4-0.8-0.6   C15,59.4,15.1,59.4,15.2,59.4z M15,60.4c-0.2,0-0.4,0-0.7-0.1c-0.4-0.4-0.7-0.7-1-1.1c0.2,0.1,0.5,0.1,0.8,0.2   c0.1,0.1,0.1,0.1,0.2,0.2c0,0.1,0.1,0.2,0.2,0.3C14.6,60.1,14.8,60.2,15,60.4z M14.4,58.5h-0.1c0,0,0.1,0.1,0.1,0.2   c-0.4-0.3-0.8-0.7-1.2-1.1C13.6,57.9,14,58.2,14.4,58.5z M13.2,58.5c-1-0.8-1.9-1.8-2.5-2.9c-0.1-0.4-0.2-0.8-0.3-1.2   c0-0.2-0.2-0.4-0.3-0.5c0-0.1,0-0.1,0-0.1c-0.1-0.5,0.3-0.2,0.5,0.1c0.1-0.4,0.2-0.8,0.3-1.2c0,0,0,0.1,0,0.2   c0,0.4,0.1,0.7,0.1,1.1c-0.2-0.3-0.3,0.2-0.2,0.6C11.3,55.9,12.1,57.3,13.2,58.5z M11.7,64.6C11.7,64.6,11.7,64.5,11.7,64.6   l0.1-0.2L11.7,64.6L11.7,64.6z M11.7,64.1c-0.1-0.2-0.1-0.4-0.2-0.7c0.2,0.1,0.3,0.2,0.5,0.3c-0.1,0-0.2,0.1-0.2,0.1   S11.8,63.9,11.7,64.1L11.7,64.1z M11,63.1c0,0.1,0,0.1,0,0.2C11,63.2,10.9,63.2,11,63.1z M10.7,61.9c0.2,0.2,0.4,0.5,0.7,0.7   c0,0.1-0.1,0.2-0.3-0.1C11,62.3,10.8,62.1,10.7,61.9z M11,59.8c-0.3-0.6-0.7-1.1-1-1.7V58c0-0.3-0.2-1-0.1-1.4   c0.1,0.3,0.1,0.5,0.2,0.8c0.1,0.2,0.2,0.3,0.4,0.5L10.4,58c0.3,0.5,0.6,1,1,1.5c0.1,0.5,0.3,0.9,0.4,1.3   C11.5,60.5,11.2,60.1,11,59.8z M9.2,57.5c0.1,0.2,0.2,0.3,0.3,0.5c0,0.1,0,0.2,0.1,0.3c0,0.2,0.1,0.5,0.2,0.7   c0.1,0.2,0.2,0.4,0.3,0.6c0.1,0.2,0.1,0.4,0.2,0.6C9.7,59.4,9.4,58.5,9.2,57.5z M10.1,63.5c0,0.1,0,0.2,0,0.2   C10.1,63.6,10.1,63.6,10.1,63.5C10,63.5,10.1,63.5,10.1,63.5z M8.2,63C8.1,62.9,8.1,62.9,8.2,63c-0.1-0.1,0-0.1,0-0.1   C8.1,62.9,8.1,62.9,8.2,63z M8.1,60.6c-0.7-0.8-0.9-2.3-1-3.6c0,0.2,0.1,0.4,0.1,0.6c0-0.3,0-0.5,0-0.8c0-0.2,0-0.3,0-0.5   c0.1-0.1,0.1-0.1,0.2-0.2c0,0.4,0.1,0.8,0.2,1.3c-0.1,0.1-0.3,0.3-0.3,0.4c0.2,0.9,0.5,1.7,0.8,2.5C8.1,60.3,8,60.4,8.1,60.6z    M8.2,54.2c0,0.6,0,1.1,0,1.7c0-0.2-0.1-0.4-0.1-0.5C8,55.2,8,55.1,8,55c0-0.2,0-0.3,0-0.5v-0.1c-0.1,0.3-0.1,0.7-0.2,1   c0-0.1,0-0.2,0-0.3c0-0.1,0-0.2-0.1-0.3c0-0.2,0.1-0.3,0.1-0.5h0.1c0-0.1,0-0.2,0-0.3C8,54,8,54,8,54c0-0.3,0.1-0.7,0.1-1   c0-0.1,0.1-0.2,0.2-0.2c0,0.2,0,0.4-0.1,0.6c0,0.1-0.1,0.2-0.1,0.3C8.1,53.8,8.1,54,8.2,54.2z M7.9,57.2C7.9,57.2,8,57.2,7.9,57.2   c0.4,0.9,0.7,1.8,1,2.6C8.4,58.9,8.1,58,7.9,57.2z M9,58.8c0-0.1-0.1-0.1-0.1-0.2c-0.2-0.5-0.3-0.9-0.5-1.4c0.1,0,0.2,0,0.2-0.2   c0,0.1,0.1,0.1,0.1,0.2C8.8,57.7,8.9,58.3,9,58.8z M9.1,60.9C9.1,60.9,9.1,60.9,9.1,60.9c-0.1,0.1-0.2,0-0.3-0.3   c-0.1-0.1-0.1-0.2-0.2-0.4C8.7,60.4,8.9,60.7,9.1,60.9z M8.9,56c0-0.7,0-1.5,0.2-2.2c0-0.1,0-0.2-0.1-0.4c0.1-0.2,0.2-0.4,0.3-0.7   c0.1-0.2,0-0.6-0.2-0.8v-0.1c0.2-0.1,0.3-0.3,0.5-0.4c0.1,0,0.1,0.1,0.1,0.2c-0.2,0.4-0.3,0.8-0.4,1.3c0.1,0,0.1-0.1,0.2-0.1   c-0.3,0.9-0.4,1.9-0.3,2.9v0.1C9.1,55.9,9,56,8.9,56z M9.5,56.8c0,0.1,0,0.2,0,0.3c0-0.1-0.1-0.1-0.1-0.2L9.5,56.8z M10.5,51.7   c0.3-0.3,0.4,0.3,0.1,0.6c0,0,0,0.1,0,0.1c-0.1-0.1-0.2,0-0.4,0.1c0-0.1,0-0.2,0.1-0.3C10.4,52,10.4,51.9,10.5,51.7z M10.4,51.7   c0-0.1,0.1-0.2,0.1-0.3c0,0,0-0.1,0-0.2c0.1-0.1,0.2-0.2,0.3-0.3c0.3-0.1,0.7-0.2,1-0.3C11.3,50.9,10.8,51.3,10.4,51.7z M12,51   c-0.2,0.1-0.3,0.2-0.5,0.3c0-0.1,0.1-0.2,0.1-0.3c0.3-0.2,0.6-0.3,1-0.3C12.4,50.9,12.2,50.9,12,51z M15.3,52.3   c0-0.3,0-0.5-0.1-0.7c0-0.1-0.1-0.3-0.1-0.4c0,0,0,0,0-0.1V51c0.2-0.1,0.3,0.2,0.4,0.3C15.6,51.7,15.5,52,15.3,52.3z M8.4,50.4   c0.4-0.6,0.9-1.2,1.6-1.2c0,0,0,0,0.1,0c0.7-0.5,1.5-0.8,2.2-0.7c0.2,0,0,0.4-0.3,0.6c0.6-0.2,1.2-0.2,1.8-0.2   c0.7,0.1,1.4,0.3,1.9,0.7c-0.1,0-0.2,0.1-0.3,0.2c-0.4-0.2-0.7-0.3-1.2-0.2c0-0.1,0.1-0.2,0-0.2c-0.1-0.1-0.2,0-0.3,0.1   c-0.1,0-0.1-0.1-0.2-0.1c-0.1-0.1-0.1,0.2-0.1,0.4c0,0,0,0,0,0.1l-0.1-0.1c-0.1-0.1-0.2-0.1-0.3-0.2c-0.1,0-0.1,0-0.1,0.1   c0,0,0-0.1-0.1-0.1s-0.2,0-0.4,0c0.1-0.1,0.2-0.3,0-0.3c-0.4,0-0.7,0.1-1,0.2c0-0.3-0.2-0.7-0.3-0.6c-0.8,0.4-1.6,0.8-2.4,1.3   c-0.3,0.1-0.5,0.3-0.7,0.5C8.3,50.6,8.3,50.6,8.4,50.4C8.4,50.5,8.4,50.5,8.4,50.4z M7,52.3c0.3-0.6,0.7-1.1,1.1-1.5   c-0.2,0.2-0.4,0.5-0.5,0.7c-0.1,0.1,0,0.4,0.1,0.7c0,0,0,0.1-0.1,0.1c-0.1,0.2-0.3,0.4-0.4,0.6c-0.1-0.1-0.2-0.2-0.2,0   c-0.2,0.4-0.3,0.7-0.4,1.1c-0.5,1-0.9,1.9-1.2,3c0.2-1.5,0.8-2.9,1.6-4.2c0.1-0.2,0.2-0.3,0.4-0.5C7.1,52.5,6.8,52.6,7,52.3z    M6.4,62.5c-1-1.4-1.3-3.4-1-5.3c0,0,0,0,0.1,0c-0.3,1.6,0.5,3.4,0.9,4.9c0,0.1,0.1,0.1,0.2,0c0,0.1,0.1,0.1,0.1,0.2   C6.7,62.5,6.5,62.6,6.4,62.5z M6.5,56.3c-0.1,0.7-0.1,1.3,0,1.9c0,0.2,0.1,0.5,0.1,0.7c0,0.1,0,0.2,0,0.3c-0.1,0.3-0.1,0.6,0,1   c-0.1-0.3-0.2-0.6-0.2-0.9c-0.1-0.3,0-0.3,0.2-0.1c0-0.1,0-0.1-0.1-0.2c-0.1-0.3-0.1-0.6-0.2-1c-0.1-0.4-0.1-0.9,0-1.3   c0-0.1,0-0.1-0.1-0.1c0.1-0.2,0.1-0.4,0.2-0.7c0-0.1,0-0.2-0.1-0.4c0-0.3,0.1-0.3,0.2-0.2c0-0.2,0.1-0.3,0.2-0.5   C6.8,55,7,55.1,7,54.9c0.1-0.4,0.3-0.8,0.4-1.1c0-0.1,0-0.2,0-0.4l0.1-0.1c0.1,0.3,0.3,0.5,0.3,0.3C7.9,53.5,8,53.4,8,53.2v0.1   c-0.2,0.5-0.4,1-0.6,1.6c-0.1,0.2-0.3,0.5-0.5,0.6c0,0-0.2,0.1-0.2,0c0,0.7,0.1,1.4,0.1,2.2C6.7,57.2,6.6,56.8,6.5,56.3z M7,62.7   c-0.2-0.2-0.2-0.7-0.1-0.8C7,62.3,7.1,62.7,7.3,63C7.2,62.9,7.1,62.8,7,62.7z M7.2,61L7.2,61c0-0.2,0-0.2,0-0.3   C7,60.5,7,60.3,7,60.1c0.2,0.7,0.6,1.4,1.1,2c0,0.2,0,0.4,0,0.6c-0.3-0.4-0.6-0.7-0.7-1.1C7.3,61.4,7.3,61.2,7.2,61z M7.9,63.7   c0-0.2,0-0.5,0-0.6c-0.1-0.2-0.1-0.3-0.2-0.5C7.9,62.8,8,63,8.2,63.1c0,0.4,0.1,0.7,0.1,1C8.2,63.9,8,63.8,7.9,63.7z M9.6,65.2   c-0.1,0.1-0.1,0.2-0.2,0.2c0-0.2-0.1-0.4-0.2-0.6c-0.1,0-0.2-0.1-0.3-0.1c-0.2-0.1-0.2-0.2-0.1-0.3c-0.1-0.3-0.3-0.8-0.3-0.8   c0-0.2,0-0.4,0-0.5c0.1,0.6,0.4,1.2,0.7,1.7c0.2,0.3,0.3-0.1,0.2-0.4c0.1,0,0.2,0,0.2,0.1c0.2,0.1,0.3,0.1,0.5,0.2   c0.1,0.2,0.1,0.3,0.2,0.5c0,0,0,0-0.1,0C10,65.1,9.8,65,9.5,64.9C9.5,65,9.6,65.1,9.6,65.2z M10.7,64.8c0.4,0.1,0.3,0.2,0.1,0.3   C10.8,65,10.8,64.9,10.7,64.8z M11.1,66c0.1-0.2,0.1-0.3,0-0.3c-0.1-0.1-0.1-0.3-0.2-0.4c0.2,0,0.5,0,0.6,0.1   c0.1,0.4,0.3,0.8,0.4,1.1C11.6,66.3,11.4,66.2,11.1,66z M12.5,66.7c0-0.2-0.1-0.4-0.1-0.5c-0.1-0.1-0.1-0.3-0.2-0.4c0,0,0,0,0-0.1   c-0.1-0.3-0.3-0.7-0.4-1c0.1,0.1,0.2,0.1,0.3,0.1c0.2,0.5,0.5,0.9,0.8,1.3c0.1,0.3,0.2,0.6,0.3,0.9C13,66.9,12.7,66.8,12.5,66.7z    M12.9,64.9c0-0.1-0.1-0.4-0.2-0.4c0.2,0.1,0.3,0.2,0.5,0.3C13.1,64.8,13,64.9,12.9,64.9z M17.8,67.1c-0.9,0.2-1.8,0.2-2.7,0.1   c0.2,0,0.3,0.1,0.5,0.1h0.1c0,0,0,0,0,0.1c0.6,0.1,0.1,0.5-0.4,0.4s-1-0.2-1.4-0.4c0,0,0,0-0.1,0c-0.2-0.3-0.3-0.5-0.4-0.8   c0.3,0.2,0.7,0.4,1,0.5c-0.1-0.1-0.1-0.1,0-0.2c-0.3-0.2-0.5-0.4-0.8-0.6c0.3,0,0.6,0.1,0.9,0.1c0.1,0,0.3,0.2,0.3,0.4   c0.1,0,0.2,0,0.3,0c0.7,0.2,1.4,0.1,2.2,0c0.2,0,0.6-0.1,0.7,0.1C18.2,67,18,67.1,17.8,67.1z M17.6,62.6c0.3-0.1,0.6-0.3,0.8-0.4   h-0.1c0.2-0.2,0.4-0.4,0.7-0.6c0,0.1,0,0.1,0,0.1c-0.2,0.2-0.4,0.4-0.6,0.6C18.1,62.4,17.9,62.5,17.6,62.6z M18.9,67.2   c0.1-0.1,0.1-0.3,0.1-0.4h0.1c0.1,0,0.1-0.1,0.2-0.1c-0.1,0.2-0.2,0.4-0.1,0.4c0.1,0,0.1,0,0.2,0C19.2,67.1,19.1,67.2,18.9,67.2z    M20.6,61.3c-0.2,0.3-0.7,0.4-0.6,0.1l-0.1,0.1c-0.2,0.2-0.4,0.3-0.5,0.5c0,0,0-0.1,0-0.2c0.3-0.3,0.7-0.7,1-1   c1.3-1.6,2.3-3.4,3.1-5.2c0.1,0,0.1-0.1,0.2-0.1c-0.1,0.3-0.2,0.7-0.3,1c-0.1,0.3,0,0.4,0.1,0.4C22.7,58.5,21.7,59.9,20.6,61.3z    M21.9,64.6c0.1-0.1,0.2-0.1,0.3-0.2c0,0.1,0,0.2,0,0.3c0.1,0,0.2-0.1,0.2-0.1c0,0,0,0,0,0.1c-0.4,0.2-0.7,0.4-1.1,0.6   C21.5,65,21.7,64.8,21.9,64.6z M22,66.2c0,0,0.1,0,0.1-0.1C22.1,66.1,22,66.2,22,66.2z M23.1,65.4L23.1,65.4   c-0.3,0.3-0.5,0.5-0.7,0.6c0.2-0.1,0.4-0.3,0.4-0.5c0.1-0.1,0.1-0.1,0.2-0.2c0,0-0.1,0-0.1,0c0.7-0.5,1.3-0.9,2-1.5   c0.1,0,0.2-0.1,0.2-0.1v-0.1c0,0,0-0.1,0.1-0.1c0.1,0,0.2-0.2,0.3-0.3c0.2-0.2,0.3-0.3,0.5-0.5c-0.2,0.3-0.5,0.6-0.8,0.9   c0.4-0.2,0.8-0.3,1.2-0.5c-0.5,0.6-1.1,1.2-1.7,1.7c0.1-0.1,0.1-0.1,0.2-0.2c-0.6,0.2-1.2,0.4-1.8,0.6   C23.1,65.3,23.1,65.3,23.1,65.4z M23.4,66.7c0.2-0.2,0.4-0.3,0.6-0.5c0.1,0,0.2-0.1,0.3-0.1c0.1-0.1,0.3-0.1,0.4-0.2h0.1   c0.2-0.1,0.4-0.2,0.6-0.3c0.3-0.1,0.5-0.2,0.8-0.3c0.8-0.4,1.6-0.8,2.4-1.2C27.1,65,25.3,66.1,23.4,66.7z M29.6,59.9   c-0.3,0.4-0.5,0.8-0.8,1.2c-0.2,0.1-0.3,0.2-0.5,0.3c-0.1,0.3-0.2,0.5-0.4,0.8c-0.1,0-0.2,0-0.3-0.1c0.2-0.3,0.4-0.6,0.6-0.9   c0.1,0,0.2-0.1,0.3-0.2c0.4-0.4,0.8-0.9,1.2-1.3c0.2-0.1,0.4-0.2,0.6-0.4c0.1-0.1,0.3-0.3,0.4-0.4V59c0.6-0.4,1.2-0.8,1.8-1.3   c-0.7,0.8-1.3,1.5-2,2.3c-0.3,0.3-0.6,0.5-0.8,0.6c0.2-0.3,0.4-0.6,0.5-0.8C30.6,59.2,29.8,59.7,29.6,59.9z M33,60.7   c-0.3,0.4-0.7,0.7-1,1c-0.1,0-0.1,0.1-0.2,0.1c-0.3,0.2-0.6,0.4-0.9,0.6c-0.1,0.1-0.3,0.1-0.4,0.1c0.1-0.2,0.2-0.3,0.4-0.5   c0.1-0.1,0.2-0.2,0.3-0.3c0.7-0.4,1.3-0.9,2-1.5c0,0.1-0.1,0.2-0.1,0.3C33.1,60.6,33,60.6,33,60.7z M34.7,59.5   c-0.2,0.2-0.4,0.3-0.6,0.5c0.3-0.4,0.6-0.8,0.9-1.2c0.2,0,0.4-0.1,0.5-0.2C35.3,59,35,59.2,34.7,59.5z M36,58.1   c0.2-0.3,0.4-0.7,0.5-1c0.2-0.2,0.5-0.4,0.7-0.6C36.8,57.1,36.4,57.6,36,58.1z M38.9,54.8c-0.2,0.2-0.3,0.4-0.3,0.5   c0.1,0.1,0.1,0.1,0.2,0.2c0,0.1-0.1,0.2-0.1,0.2c-0.2,0.2-0.4,0.5-0.6,0.7c0.2-0.4,0.3-0.8,0.4-1.1c0-0.1,0-0.1,0-0.2   C38.6,55,38.8,54.8,38.9,54.8C38.9,54.7,38.9,54.7,38.9,54.8z M37.7,55.4c-0.2,0.2-0.4,0.4-0.6,0.6c0.3-0.4,0.6-0.8,0.9-1.3   c0-0.1,0.1-0.1,0.1-0.1l0.1-0.1c0.7-0.8,1.4-1.6,2.1-2.4C39.4,53.3,38.6,54.4,37.7,55.4z M41.4,51.9c-0.3,0.5-0.7,1.1-1,1.6   c0.2-0.4,0.3-0.8,0.4-1.1c0.5-0.6,0.9-1.2,1.3-1.8C41.9,51,41.7,51.5,41.4,51.9z M41.9,50c0.2-0.4,0.4-0.8,0.6-1.3   c0.3-0.5,0.5-1.1,0.5-1.7c0.1-0.3,0.2-0.6,0.3-0.9c0.1-0.2,0.2-0.4,0.3-0.5C43.3,47.1,42.7,48.6,41.9,50z M43.8,42.1   c-0.1,0.1-0.1,0.2-0.2,0.3c0.1-0.2,0-0.2-0.2-0.1c0.2-0.3,0.4-0.5,0.6-0.8C44,41.6,43.9,41.9,43.8,42.1z M44.3,42.8   c0.1-0.1,0.3-0.2,0.4-0.3c-0.2,0.3-0.3,0.5-0.5,0.8C44.2,43.1,44.2,42.9,44.3,42.8z M44.4,44.8c0-0.2,0.1-0.3,0.1-0.5   c0-0.1,0-0.1-0.1-0.1c0.3-0.6,0.6-1.1,1-1.7C45,43.3,44.7,44,44.4,44.8z M47,39.6c-0.1-0.1-0.6,0.2-0.7,0.4c-0.2,0.3-0.4,0.7-0.6,1   c-0.1,0.1-0.2,0.1-0.2,0.2c0,0.1-0.1,0.1-0.2,0.2c0-0.1,0.1-0.1,0.1-0.2c0.1-0.2,0.3-0.5,0.4-0.7c0.8-1.2,1.7-2.2,3-3   C48.1,38.1,47.5,38.8,47,39.6z M49,35.2c-0.7-0.2-1.4-0.1-2.2,0c-0.9,0.1-1.7,0.3-2.6,0.6c-0.4,0-0.8,0.1-1.2,0.2   c-1.3,0.3-2.6,0.9-3.8,1.5c1.4-0.9,2.8-1.6,4.2-2.1c0.1,0,0.1-0.1,0.2-0.2c1.1-0.2,2.2-0.3,3.4-0.3c0.2,0.1,0.2,0,0.3,0   c0.5,0,1.1,0,1.6,0C49,34.9,49.1,35.1,49,35.2z M94.1,58.5c0,0.1-0.1,0.2-0.1,0.2c0.1-0.6,0-1.3,0-1.9c0.1,0.1,0.1,0.1,0.1,0.1   C94.1,57.4,94.2,57.9,94.1,58.5z M94,55.8c0,0,0,0,0,0.1c0-0.2-0.1-0.3-0.2-0.4c0-0.1,0-0.2-0.1-0.3C93.9,55.3,93.9,55.6,94,55.8z    M93.6,58.5c0,0.1,0,0.2-0.1,0.4c0,0.1,0,0.1-0.1,0.2l0.1-0.1c0,0.3-0.1,0.6-0.1,0.9c0-0.3,0.1-0.5,0-0.8c0-0.1,0-0.2,0-0.3   c0-0.2,0.1-0.3,0.1-0.5C93.6,58.4,93.6,58.4,93.6,58.5z M92.9,55.1c0.1,0.1,0.1,0.2,0.2,0.3c0,0.1,0,0.2,0.1,0.4   c0,0.1,0.1,0.3,0.1,0.4v0.1c0,0.1,0.1,0.3,0.1,0.4v0.1c0,0.1,0,0.2,0,0.2c-0.2-0.4-0.4-0.8-0.6-1.1c-0.1-0.2-0.1-0.5-0.2-0.6   C92.6,55.4,92.8,55.3,92.9,55.1z M91.8,54.1c0-0.1,0-0.1,0.1-0.2c0,0,0,0,0.1,0.1c0,0.1,0,0.1,0.1,0.1c0,0.1,0,0.2,0,0.2h0.1   c0,0.2,0.1,0.3,0.1,0.5c0,0.1,0,0.1,0,0.2l-0.1-0.1c0-0.2,0-0.4-0.1-0.6v0.1c0,0.1,0,0.2,0,0.3c-0.1-0.1-0.2-0.2-0.3-0.4   C91.8,54.3,91.8,54.2,91.8,54.1z M92.5,56.4c0,0.1,0.1,0.2,0.1,0.3c0-0.1,0-0.1,0-0.2c0.1,0.1,0.2,0.3,0.2,0.4c0,0.2,0,0.5,0,0.7   c0-0.2,0.1-0.4,0.1-0.6c-0.1,1.1-0.3,2.2-0.6,3.1c0-0.1-0.1-0.1-0.2,0c0.3-0.8,0.5-1.5,0.7-2.3l-0.1-0.1c0,0.5-0.5-0.1-0.6-0.4   c0,0,0-0.1,0-0.1c0,0,0-0.1,0-0.1c-0.1-0.6-0.2-1.2-0.4-1.8C92,55.7,92.2,56,92.5,56.4z M92.1,57.3c-0.1,0.8-0.4,1.7-1,2.5   c0-0.1,0-0.1,0.1-0.2c0,0,0.1-0.1,0.1-0.2C91.6,58.7,91.8,58,92.1,57.3z M91.1,55.1c0-0.2,0-0.3,0-0.5c0.1,0.1,0.2,0.2,0.2,0.2   c0,0.3,0,0.6,0,0.9h-0.1c0-0.2-0.1-0.3-0.1-0.5C91.1,55.1,91.1,55.1,91.1,55.1z M91.4,56.6c0,0.1,0,0.2,0,0.3   c0,0.3,0.1,0.3,0.2,0.2c-0.2,0.4-0.3,0.9-0.5,1.4C91.2,57.9,91.3,57.2,91.4,56.6z M90.3,56c0.1-0.2,0.2-0.6,0.2-0.9   c0,0,0-0.1,0.1-0.1c0.1,0.3,0.1,0.5,0.1,0.8c-0.1,0.3-0.1,0.6-0.2,0.9c0,0.1,0.1,0.1,0.1,0.2c0,0.1-0.1,0.1-0.1,0.2   c-0.1-0.3-0.2-0.6-0.3-0.8C90.2,56.2,90.3,56.1,90.3,56z M90.6,58.4c-0.3,0.9-0.7,1.7-1.3,2.4c0.2-0.3,0.3-0.5,0.5-0.8   c0.2-0.3,0.4-0.7,0.5-1c0.1-0.2,0.2-0.5,0.2-0.7c0,0,0,0,0-0.1C90.5,58.3,90.5,58.4,90.6,58.4z M89.7,51.7c-0.1,0.1,0,0.3,0.1,0.4   c0,0.1,0,0.2,0.1,0.3c-0.1-0.1-0.2-0.1-0.3-0.1c0,0,0,0,0,0C89.4,52,89.5,51.4,89.7,51.7z M89.2,54.2c0.1-0.2,0-0.7-0.2-0.4   c0.1-0.3,0.1-0.7,0.1-1.1c0-0.1,0-0.1,0-0.2c0.1,0.4,0.2,0.8,0.3,1.2c0.2-0.3,0.5-0.6,0.5-0.1c0,0.1,0,0.1,0,0.1   c-0.1,0.1-0.2,0.3-0.3,0.5c0,0.2-0.1,0.3-0.1,0.5C89.4,54.5,89.3,54.4,89.2,54.2z M89.3,55.5c0,0.1-0.1,0.2-0.1,0.2   c0-0.1,0-0.2-0.1-0.3c0,0,0-0.1,0.1-0.1v-0.1C89.3,55.3,89.3,55.4,89.3,55.5z M88,51c-0.2-0.1-0.4-0.2-0.6-0.3c0.3,0,0.7,0.1,1,0.3   c0,0.1,0.1,0.2,0.1,0.3C88.4,51.2,88.2,51.1,88,51z M88.1,50.5c0.3,0,0.7,0.1,1,0.3c0.1,0.1,0.2,0.2,0.3,0.3c0,0.1,0,0.2,0,0.2   c0,0.1,0.1,0.2,0.1,0.3C89.2,51.2,88.7,50.8,88.1,50.5z M89.1,56.2l0.1-0.1c0.2,0,0.3,0,0.2,0.2c-0.2,0.5-0.5,1-0.8,1.4   C88.9,57.2,89,56.7,89.1,56.2z M88.5,59.8c0-0.1,0.1-0.2,0.1-0.3c0.1-0.1,0.2-0.2,0.3-0.4c0.2-0.5,0.4-1,0.4-1.5   c0-0.2,0.4-0.5,0.7-0.6c0-0.1,0-0.1,0.1-0.2c0.1,0.2,0.2,0.5,0.3,0.7c-0.2,0.4-0.4,0.8-0.6,1.1c-0.2,0.6-0.6,1.2-1,1.7   c-0.1,0.1-0.3,0.2-0.4,0.3c-0.1,0.1-0.1,0.1-0.2,0.2c0-0.1,0-0.1,0.1-0.2c-0.2,0-0.2,0-0.2-0.1v-0.1c0-0.1,0.1-0.1,0.1-0.2   C88.3,60.1,88.4,59.9,88.5,59.8z M89.3,61.8c-0.1,0.2-0.3,0.4-0.4,0.6c-0.2,0.3-0.2,0.2-0.3,0C88.8,62.3,89.1,62,89.3,61.8z    M87.7,59.4c-0.1,0.2-0.2,0.4-0.3,0.5c-0.1,0.1-0.2,0.2-0.3,0.3c0.1,0,0.3,0,0.4,0c-0.3,0.2-0.6,0.3-0.9,0.3v-0.1c0,0,0,0,0-0.1   c0-0.1,0-0.2,0.1-0.3c0.5-0.7,1-1.5,1.4-2.3C88,58.3,87.8,58.8,87.7,59.4z M87.3,63C87.3,63,87.3,63,87.3,63c0-0.3,0.1-0.5,0.2-0.7   c0,0.2,0,0.3-0.1,0.4c0.1,0,0.2-0.1,0.3-0.1l0.1,0.1C87.6,62.8,87.5,62.9,87.3,63z M87.5,64.6c-0.1,0.1-0.2,0.3-0.2,0.4   c-0.2-0.1-0.3-0.2-0.5-0.3c0.2-0.1,0.3-0.2,0.5-0.3C87.4,64.5,87.5,64.5,87.5,64.6z M87.5,60.7c-0.1,0.3-0.2,0.5-0.2,0.7   C87.2,61.3,87.3,60.9,87.5,60.7z M86.7,61.4c-0.2,0-0.3,0-0.5,0c0.1,0,0.1-0.1,0.1-0.2c0.1,0,0.1,0,0.2,0S86.7,61.3,86.7,61.4z    M87.1,56.4c0.1-0.1,0.4-0.5,0.6-0.4c-0.3,0.3-0.5,0.5-0.8,0.7C87,56.6,87.1,56.5,87.1,56.4z M86.9,57.5c-0.5,0.5-0.9,1-1.5,1.4   c-0.1,0.1-0.2,0.1-0.3,0C85.7,58.5,86.3,58,86.9,57.5z M85.3,60.3c-0.1,0-0.1,0-0.2,0c0.2-0.2,0.3-0.3,0.5-0.5   c0.1-0.1,0.1-0.2,0.2-0.3c0.1-0.1,0.1-0.1,0.2-0.2h0.1C85.9,59.6,85.6,60,85.3,60.3z M86,62.4c-0.2,0.4-0.4,0.8-0.7,1.1   c0.2-0.3,0.3-0.6,0.5-1C85.9,62.5,85.9,62.5,86,62.4z M85.2,62.7c-0.1,0.1-0.2,0.3-0.3,0.4c-0.2-0.1-0.5-0.1-0.7-0.2   C84.5,62.9,84.8,62.8,85.2,62.7z M84.8,60.8c-0.1,0-0.1,0-0.2,0c0,0,0-0.1-0.1-0.1c0,0,0,0,0.1-0.1c0.1,0,0.2,0,0.4,0   c0,0.1,0,0.1,0,0.2C85,60.8,84.9,60.8,84.8,60.8z M85.2,59.3c-0.2,0.2-0.5,0.4-0.8,0.6c0-0.3,0.2-0.6,0.4-0.6   C84.9,59.3,85,59.3,85.2,59.3z M84.7,58c-0.2-0.1-0.4-0.2-0.5-0.2c0,0,0.1,0,0.1-0.1C84.4,57.7,84.6,57.8,84.7,58z M84.4,58.7   C84.4,58.7,84.4,58.7,84.4,58.7c-0.1,0.1-0.1,0.1-0.2,0.1c0-0.1-0.1-0.2-0.2-0.3C84.1,58.6,84.3,58.6,84.4,58.7z M80.3,58.1   c0.1,0.2,0.2,0.4,0.4,0.6c-0.7-0.7-1.4-1.5-2-2.3c0-0.1,0-0.2,0.2-0.1c0.2,0.2,0.5,0.3,0.8,0.4c0.1,0.1,0.2,0.2,0.2,0.3   c0.1,0.1,0.2,0.3,0.3,0.3l0.1,0.1c0.3,0.3,0.5,0.6,0.8,0.8c-0.4-0.2-0.9-0.4-1.3-0.6C79.9,57.8,80.1,57.9,80.3,58.1z M81.4,58.7   L81.4,58.7c0.4,0.4,0.6,0.6,0.9,0.9c-0.3-0.1-0.6-0.1-0.8-0.2c-0.1-0.1-0.3-0.2-0.4-0.3c-0.1-0.2-0.3-0.5-0.4-0.7   C81,58.5,81.2,58.6,81.4,58.7z M82,57.7c0.1,0,0.2,0,0.3,0.1c0.5,0.4,1,0.7,1.5,1c-0.1,0-0.2,0-0.2,0C83,58.5,82.5,58.1,82,57.7z    M82.9,59.3c0.4,0.2,0.8,0.4,1.2,0.6c-0.3,0-0.5,0-0.8,0c-0.4-0.3-0.7-0.5-1-0.8C82.5,59.2,82.7,59.2,82.9,59.3z M83.8,57.5   c-0.2,0-0.5,0.1-0.7,0.1c-0.5-0.2-1-0.5-1.5-0.8c0,0-0.1-0.1-0.1-0.1c0.2,0.1,0.5,0.2,0.7,0.3C82.7,57.2,83.2,57.4,83.8,57.5z    M79.4,54.8c-0.2,0-0.2,0.2,0,0.5c0.5,0.6,1,1.1,1.6,1.6c0.1,0.1,0.2,0.3,0.3,0.3c0.1,0.1,0.2,0.1,0.3,0.1c0.1,0.1,0.1,0.1,0.2,0.2   c-0.1,0-0.2,0-0.3,0c-0.2-0.2-0.5-0.4-0.7-0.6c0-0.1-0.1-0.1-0.2-0.2c-0.6-0.6-1.1-1.2-1.6-1.8c-0.2-0.5-0.4-1-0.6-1.6   C78.7,53.8,79.1,54.3,79.4,54.8z M78.3,55.2c-0.1,0-0.2-0.1-0.3-0.3c-0.2-0.5-0.5-1.1-0.7-1.6c0.4,0.6,0.8,1.1,1.3,1.7   C78.4,54.7,78,54.7,78.3,55.2z M77.1,50.7c0.2,1,0.6,1.8,0.9,2.6c-0.3-0.7-0.6-1.4-0.9-2.1c-0.1-0.3-0.2-0.6-0.3-1   C76.9,50.4,77,50.5,77.1,50.7z M75.5,50.9v-0.1c0.1,0.1,0.2,0.1,0.2-0.1c-0.3-2.7-1.1-5.2-2.3-7.5c0,0,0.1,0.1,0.1,0.2   c0.3,0.5,0.5,0.9,0.7,1.4c0.1,0.2,0.2,0.4,0.3,0.6c0.8,1.8,1.2,3.7,1.6,5.8C76.2,51.9,75.6,51.2,75.5,50.9z M75.7,52.7   c0.2,0.5,0.4,0.9,0.6,1.3c-0.2-0.4-0.5-0.8-0.7-1.2c-0.1-0.3-0.2-0.5-0.3-0.8c0,0,0,0,0-0.1c0-0.1,0-0.2,0-0.4   c0.1,0.2,0.2,0.5,0.3,0.7C75.5,52.4,75.5,52.5,75.7,52.7z M79.1,61.6c-0.1,0-0.2-0.2-0.3-0.3C78.9,61.4,79,61.5,79.1,61.6   c0,0,0,0.1,0.1,0.1C79.1,61.7,79.1,61.7,79.1,61.6z M78.3,61.1c-0.1,0-0.1,0-0.2,0C78,61,78,61,77.9,60.9c-0.5-0.5-0.9-0.9-1.4-1.4   c-0.1-0.2-0.2-0.4-0.2-0.6c0,0,0,0,0.1,0c0.2,0.2,0.4,0.4,0.6,0.6c0.1,0,0.2,0.1,0.3,0.1c0.1,0.1,0.1,0.1,0.2,0.2   c0.4,0.6,0.8,1,1.3,1.5C78.6,61.1,78.4,61,78.3,61.1z M78.5,64.9c-0.2,0-0.3-0.1-0.5-0.1c-0.1-0.1-0.2-0.1-0.4-0.2   c0,0-0.1,0-0.1-0.1c0.1,0,0.2,0.1,0.3,0.1c0.2,0.1,0.3,0.1,0.5,0.2C78.4,64.8,78.5,64.9,78.5,64.9z M74.3,63.9   c0.5,0.3,1.1,0.6,1.6,0.9C75.4,64.6,74.8,64.3,74.3,63.9z M75.3,65.3c-0.2,0-0.3-0.1-0.5-0.1c-0.4-0.1-0.4-0.3-0.2-0.4   C74.8,65,75,65.1,75.3,65.3z M72.8,62c-0.2-0.2-0.3-0.5-0.5-0.7c0.5,0.4,1.1,0.8,1.7,1.3C73.6,62.4,73.2,62.2,72.8,62z M74,64.1   c0,0,0,0,0,0.1c-0.2-0.1-0.5-0.2-0.7-0.4c0,0-0.1-0.1-0.1-0.2c0-0.1,0.1-0.2,0.1-0.3C73.5,63.6,73.8,63.9,74,64.1z M72.9,59.9   c-0.4-0.4-0.8-0.9-1.2-1.4c-0.1,0-0.2-0.1-0.2-0.2c0.2,0.2,0.4,0.3,0.6,0.5c0.1,0.1,0.2,0.3,0.3,0.4c0.2,0.1,0.3,0.1,0.5,0.2   c0.2,0.2,0.4,0.4,0.6,0.5c0,0.1,0,0.1,0.1,0.2c0.1,0.3,0.9,0.8,0.8,0.5c0-0.1,0-0.1-0.1-0.2c0.2,0.1,0.4,0.2,0.6,0.2   c0.3,0.4,0.7,0.9,1.1,1.3l0.1,0.1c-0.2-0.2-0.4-0.3-0.6-0.4c-0.1-0.2-0.2-0.3-0.3-0.5c-0.4-0.1-0.7-0.3-1.1-0.4   C73.7,60.4,73.3,60.2,72.9,59.9z M67.2,56.6c0.1,0.1,0.3,0.2,0.4,0.3c0.1,0.2,0.2,0.4,0.3,0.6c-0.3-0.2-0.7-0.5-1-0.7   C67.1,56.8,67.2,56.8,67.2,56.6z M66.6,55.2c0.2,0.3,0.4,0.6,0.5,0.8c-0.1-0.1-0.1-0.1-0.2-0.2C66.7,55.6,66.6,55.4,66.6,55.2z    M67.7,56c-0.2-0.3-0.5-0.6-0.7-0.9c-0.3-0.5-0.6-1-0.9-1.4c0.6,0.6,1.2,1.2,1.8,1.7v0.1c0.3,0.4,0.6,0.8,0.9,1.3   c-0.2-0.3-0.3-0.7-0.5-1c0.2,0.2,0.4,0.4,0.6,0.6c0.1,0.3,0.1,0.6,0.2,0.8c0,0.1,0.1,0.2,0.2,0.3c0.1,0.1,0.1,0.2,0.2,0.2v-0.1   c0.1,0.1,0.2,0.1,0.3,0.2c0.1,0.1,0.1,0.2,0.2,0.3c0.3,0.2,0.6,0.3,1,0.5c0,0.1,0.1,0.1,0.1,0.2c0.2,0.2,0.3,0.4,0.5,0.7   c0,0,0,0,0,0c-0.2-0.1-0.3-0.3-0.5-0.4H71c-0.8-0.7-1.5-1.3-2-1.8C68.5,56.9,68.1,56.4,67.7,56z M65.2,51.5c0-0.1-0.1-0.2-0.2-0.3   c0.5,0.8,1,1.6,1.6,2.3c-0.5-0.6-1-1.2-1.4-1.8C65.2,51.7,65.3,51.7,65.2,51.5z M60.2,49.3c-0.1-0.1-0.2-0.2-0.3-0.4   c-0.4-0.7-0.8-1.4-1.2-2.2c0.2,0.2,0.3,0.4,0.5,0.5c-0.5-1-1-2-1.5-2.9c0.8,1.4,1.7,2.7,2.6,4c0.1,0.1,0.1,0.2,0.2,0.3l0.1,0.1   c0.2,0.3,0.4,0.7,0.6,1c0.3,0.4,0.6,0.9,0.9,1.3c-0.1-0.1-0.2-0.2-0.3-0.3c0.1,0.2,0.2,0.4,0.3,0.6c0.2,0.2,0.4,0.3,0.5,0.5   c0.5,0.7,1,1.5,1.5,2.2c-0.6-0.5-1.1-1.1-1.7-1.6c-0.6-0.9-1.2-1.7-1.7-2.6C60.4,49.7,60.3,49.5,60.2,49.3z M60.4,50.5   c-0.1-0.1-0.2-0.3-0.4-0.4c-0.1-0.1-0.1-0.3-0.2-0.4C60,49.9,60.2,50.2,60.4,50.5z M53.8,37.1c0-0.1,0-0.1,0-0.2   c0.2,0,0.4,0.1,0.6,0.1c0,0.2,0.4,0.7,0.7,0.7c0.2,0,0.3,0,0.5,0.1c0.6,0.5,1.2,1,1.8,1.6C56.3,38.6,55.1,37.8,53.8,37.1z    M55.1,42.1c-0.1-0.2-0.2-0.3-0.4-0.5c0,0,0,0,0.1,0C54.9,41.8,55,41.9,55.1,42.1z M54.8,36.5C54.8,36.5,54.8,36.5,54.8,36.5   c-0.4,0-0.8-0.1-1.2-0.2c-0.1,0-0.1-0.1-0.2-0.3c0-0.1,0.1-0.1,0.1,0h0.1c0.1,0.1,0.2,0.2,0.3,0.2C54.2,36.3,54.5,36.4,54.8,36.5z    M54,34.9c0.3,0,0.6,0.1,0.9,0.1c0,0.2,0.1,0.5,0.3,0.6c-0.1,0-0.3-0.1-0.4-0.1C54.5,35.3,54.3,35.1,54,34.9z M53.7,38.7   c0.1,0.2,0.2,0.4,0.3,0.6c0,0.1,0,0.2,0.1,0.3c-0.1-0.2-0.3-0.3-0.4-0.5c-0.2-0.3-0.5-0.5-0.7-0.8c-0.1-0.1-0.2-0.2-0.3-0.3   c-0.1-0.1-0.2-0.3-0.4-0.4l-0.1-0.1C52.8,37.8,53.3,38.2,53.7,38.7z M66.4,35.6c0.6,0.5,1.2,1,1.7,1.5c0.1,0.1,0.1,0.2,0.2,0.4   c0.3,0.2,0.5,0.5,0.8,0.8c0.3,0.3,0.5,0.6,0.8,1c0.1,0.2,0.2,0.4,0.4,0.6c-0.4-0.5-0.9-0.9-1.3-1.3c0.4,0.6,0.7,1.2,1,1.9   c0,0,0.1,0,0.1,0.1c0,0,0,0,0-0.1c0,0,0,0,0,0.1c0.1,0,0.2,0,0.1-0.2c0.1,0.2,0.3,0.3,0.4,0.5c0-0.2-0.1-0.4-0.1-0.6   c0.8,1.4,1.7,2.9,2.3,4.4c0,0,0-0.1,0-0.2c0,0.1,0.1,0.2,0.1,0.3c0,0.1,0.1,0.2,0.1,0.2c0-0.1-0.1-0.1-0.1-0.2   c0.1,0.2,0.1,0.4,0.2,0.6c0.2,0.6,0.3,1.3,0.5,1.9c-0.3-0.8-0.7-1.6-1.1-2.4c-0.1-0.4-0.2-0.8-0.4-1.3c-0.5-1-1.1-1.9-1.8-2.8   c0,0-0.1-0.1-0.1-0.1c0.5,0.9,0.8,1.9,1.1,2.9c0.1,0.2,0.3,0.4,0.4,0.6c0,0,0,0,0,0.1c0.1,0.1,0.1,0.2,0.1,0.3h-0.1   c-0.1-0.2-0.3-0.4-0.4-0.6c0.1,0.3,0.2,0.5,0.2,0.8c-0.3-0.5-0.6-1-0.9-1.4c-0.1-0.3-0.2-0.6-0.3-0.8c-0.1-0.1-0.2-0.3-0.3-0.4   c-0.4-0.9-0.8-1.9-1.3-2.8C67.9,38,67,36.9,66,35.9c1,0.8,1.8,1.8,2.6,2.8C67.9,37.6,67.2,36.6,66.4,35.6z M68.9,35.2   c0.2,0.2,0.2,0.2,0.3,0.3c0,0,0,0,0.1,0.1c0.2,0.2,0.4,0.5,0.6,0.7c0.1,0.1,0.2,0.2,0.4,0.3c-0.1,0-0.1,0.1,0.1,0.4   c1.6,1.8,2.8,3.8,3.7,6C74,43,74,43,74,43.1c0,0-0.1,0.1-0.1,0.3c-0.1-0.2-0.2-0.4-0.3-0.6c-0.1-0.3-0.2-0.6-0.3-0.9   c-0.1-0.2-0.1-0.4-0.2-0.6c0-0.1-0.1-0.1-0.1-0.2c-0.4-0.8-0.8-1.7-1.3-2.4c-0.1-0.1-0.3-0.2-0.4-0.3c-0.6-1-1.3-1.9-2.2-2.8   C69.2,35.7,69.1,35.4,68.9,35.2C68.9,35.2,69,35.3,68.9,35.2z M70.2,36.1c1,1,1.7,2.1,2.3,3.2c-0.6-0.8-1.1-1.6-1.8-2.4   c0-0.1-0.1-0.1-0.2-0.1c0,0,0-0.1-0.1-0.1c0,0,0-0.1-0.1-0.2l-0.1-0.1C70.3,36.3,70.2,36.2,70.2,36.1z M75.2,58.3   c-0.3-0.6-0.5-1.2-0.8-1.8c0.2,0.2,0.3,0.5,0.5,0.7c0.2,0.4,0.4,0.9,0.6,1.3C75.4,58.3,75.3,58.3,75.2,58.3z M74.5,55.3   c-0.2-0.4-0.4-0.7-0.5-1.1c0-0.2,0-0.4-0.1-0.5c0.6,1,1.1,1.9,1.7,2.9c0,0.1,0.1,0.2,0.1,0.3C75.3,56.3,74.9,55.8,74.5,55.3z    M69.4,51c0.2,0.3,0.4,0.6,0.6,1c0.4,1,0.9,2,1.3,3v0.1c-0.4-0.7-0.7-1.3-1.1-1.9c0-0.1,0-0.3,0-0.4C70,52.2,69.7,51.6,69.4,51z    M68.3,50c-0.2-0.5-0.4-0.9-0.6-1.4c0.7,1.1,1.3,2.3,1.8,3.5c-0.2-0.2-0.4-0.5-0.6-0.7c-0.1-0.2-0.2-0.6-0.1-0.7   C68.6,50.5,68.4,50.2,68.3,50z M65.3,48.4c-0.2-0.4-0.4-0.8-0.6-1.2c-0.1-0.1-0.1-0.2-0.1-0.3c0-0.1,0-0.1,0-0.2   c0.1-0.1,0.3,0,0.4,0.3c0.2,0.5,0.5,1.1,0.8,1.6C65.6,48.3,65.2,48,65.3,48.4z M65.6,48.9l-0.1-0.1c-0.1-0.1-0.1-0.3-0.2-0.4   C65.4,48.6,65.5,48.7,65.6,48.9z M64,44.5c-0.1-0.2-0.3-0.4-0.4-0.6c0.3,0.3,0.5,0.6,0.8,0.9c-0.8-1.4-1.7-2.6-2.7-3.8   c1,0.9,1.9,1.9,2.7,2.9c0,0,0,0,0,0.1c0.2,0.4,0.5,0.8,0.7,1.3c0.1,0.2,0.1,0.5,0,0.6c0.6,1.5,1.3,3.1,1.9,4.6   C66.1,48.5,65.2,46.4,64,44.5z M62.2,48.5c0-0.1-0.1-0.1-0.1-0.2c-0.7-1.1-1.5-2.3-2.3-3.4c-0.1-0.2-0.2-0.4-0.3-0.7   c1.4,1.7,2.6,3.6,3.6,5.6C62.8,49.4,62.5,48.9,62.2,48.5z M63.2,52.3c-0.3-0.4-0.5-0.8-0.8-1.2c0.1,0,0.2,0,0.2-0.1   c0.1,0.2,0.1,0.3,0.2,0.4C62.9,51.7,63,52,63.2,52.3z M59.6,46.2c0.5,0.7,1,1.4,1.6,2.1c0.3,0.5,0.6,0.9,0.9,1.4   c-0.1-0.2-0.1,0-0.1,0.2c-0.4-0.5-0.9-1-1.3-1.5c-0.4-0.8-0.9-1.6-1.3-2.4C59.4,46,59.5,46,59.6,46.2z M56.6,38.1   c1,0.4,2.1,1.2,3.1,1.9c0,0.2,0,0.4,0,0.5c0.6,0.4,1.1,0.8,1.6,1.3c0.9,1,1.7,1.9,2.5,3c0.2,0.2,0.3,0.9,0,0.8   c-0.1-0.1-0.2-0.2-0.2-0.2c-1.5-1.9-3.1-3.8-4.9-5.4c0,0,0,0,0,0.1c-0.2-0.2-0.3-0.3-0.5-0.5c0,0,0,0,0-0.1   C57.7,38.9,57.1,38.5,56.6,38.1z M58.3,37.9c0,0,0,0,0-0.1c0.1,0.1,0.2,0.2,0.3,0.3C58.5,38,58.4,38,58.3,37.9z M60.1,39.5   c0-0.2-0.1-0.6-0.2-0.7c-0.3-0.3-0.6-0.6-0.9-0.9c0.1,0,0.2,0,0.3,0c0.3,0.3,0.6,0.6,0.9,0.8c0,0.1,0,0.1,0.1,0.2   c-0.1,0-0.1,0.4-0.1,0.7C60.2,39.6,60.2,39.6,60.1,39.5z M60.1,39.6L60.1,39.6c-0.3-0.2-0.5-0.3-0.7-0.5c0.1,0.1,0.3,0.2,0.5,0.3   C60,39.5,60,39.5,60.1,39.6z M67.8,40.8c-0.2-0.2-0.4-0.3-0.6-0.5c-0.5-0.6-1-1.2-1.5-1.8c0.1,0,0.1,0.1,0.2,0.1   c-0.2-0.2-0.5-0.4-0.8-0.7c-0.4-0.4-0.9-0.8-1.3-1.2c0.8,0.8,1.6,1.7,2.3,2.5c-0.6-0.5-1.2-0.9-1.8-1.3c-0.5-0.6-1.1-1.1-1.7-1.6   c0.3,0.2,0.8,0.3,1.2,0.4c0.2,0.1,0.4,0.1,0.6,0.2c1.2,1.1,2.4,2.3,3.4,3.6c-0.3-0.4-0.7-0.7-1-1.1C67.2,39.8,67.5,40.3,67.8,40.8z    M67.3,45.1c0.1,0.1,0.2,0.3,0.2,0.5c-0.3-0.6-0.6-1.2-1-1.7c0.3,0.4,0.6,0.7,0.9,1.1C67.3,44.9,67.2,45,67.3,45.1z M64.3,39.6   c-0.2-0.2-0.4-0.4-0.7-0.6c0.4,0.2,0.9,0.4,1.3,0.6c0,0.3,0.2,0.8,0.3,0.9c0.5,0.5,1,1,1.4,1.5C65.9,41.2,65.1,40.4,64.3,39.6z    M67,41.8c-0.6-0.6-1.1-1.3-1.7-1.9c0.1,0,0.1,0.1,0.2,0.1C66,40.6,66.6,41.2,67,41.8L67,41.8z M62.1,35.4c-0.5-0.4-1-0.7-1.5-1   c1,0.3,1.9,0.8,2.8,1.4C62.9,35.6,62.5,35.5,62.1,35.4z M61.9,36.2c0.3,0.2,0.5,0.4,0.8,0.6c0.1,0,0.1,0.1,0.2,0.1V37   c0.4,0.3,0.7,0.6,1,0.8c-0.4-0.3-0.8-0.5-1.3-0.8s-1-0.7-1.5-1C61.3,36.1,61.6,36.2,61.9,36.2z M61.5,37.3c-0.1,0-0.1,0-0.2,0   c0,0-0.1,0-0.1-0.1C61.3,37.2,61.4,37.3,61.5,37.3z M61.3,38.3c0.4,0.5,0.8,1.1,1.1,1.6c0.6,0.9,1.2,1.8,1.7,2.8   c-0.3-0.3-0.6-0.7-0.9-1c-0.1-0.1-0.2-0.3-0.3-0.4c0-0.1-0.1-0.3-0.3-0.5c-0.1-0.1-0.2-0.1-0.3-0.2c-0.2-0.3-0.5-0.5-0.8-0.8   c0.3,0.2,0.6,0.4,0.9,0.6c-0.6-0.8-1.2-1.5-1.8-2.3C60.9,38.2,61.1,38.2,61.3,38.3z M65.6,44.6c0-0.1,0-0.2-0.1-0.3   c-0.5-0.9-1-1.9-1.5-2.8c0.2,0.3,0.4,0.5,0.6,0.8c0.4,0.5,0.7,0.9,1,1.4c0.1,0.1,0.1,0.2,0.2,0.3c0.2,0.3,0.3,0.7,0.5,1.1   c0.2,0.4,0.7,0.7,0.5,0.1c0-0.1-0.1-0.2-0.2-0.4c0.3,0.4,0.6,0.9,0.9,1.3c0.2,0.3,0.2,1.1-0.1,0.7c0,0.2,0,0.3,0,0.4   C66.8,46.3,66.2,45.4,65.6,44.6z M66.5,40.7c0,0-0.1,0-0.2-0.1c-0.2-0.1-0.3-0.3-0.5-0.5c0,0,0,0,0-0.1c0.2,0.2,0.4,0.3,0.6,0.5   c-0.1-0.1-0.2-0.2-0.3-0.4c0.6,0.4,1.1,0.9,1.6,1.4c0.4,0.7,0.8,1.3,1.1,2c0.2,0.4,0,1-0.3,0.4C67.9,42.8,67.2,41.7,66.5,40.7z    M69.8,44.1c0.1,0.1,0.1,0.1,0.2,0.2c0.1,0.4,0.2,0.8,0.4,1.1c-0.3-0.6-0.6-1.1-0.9-1.6C69.6,43.9,69.7,44,69.8,44.1z M70.7,47.1   c-0.3-0.6-0.6-1.2-1-1.9c0.2,0.2,0.7,0.6,0.7,0.4c0.1,0.4,0.2,0.9,0.3,1.3c-0.2-0.4-0.3-0.8-0.5-1.2C70.4,46.2,70.6,46.6,70.7,47.1   z M71.3,49.3c0.1,0.2,0.2,0.4,0.3,0.7c-0.1,0-0.1,0,0,0.2c0.1,0.3,0.3,0.5,0.4,0.8c0,0.1,0,0.2,0,0.3c-0.2-0.3-0.3-0.5-0.5-0.8   c-0.2-0.4-0.4-0.8-0.6-1.2c-0.1-0.3-0.2-0.6-0.3-0.9c0-0.1-0.3-0.3-0.4-0.5c-0.3-0.5-0.6-1-0.9-1.5c0.1,0,0.1-0.1,0-0.4   c-0.2-0.4-0.4-0.8-0.5-1.2C69.7,46.3,70.6,47.7,71.3,49.3z M71.9,46.3c0-0.1-0.1-0.2-0.1-0.3c0.1,0.1,0.2,0.3,0.2,0.4   c0.1,0.5,0.3,1.1,0.4,1.6c-0.2-0.4-0.4-0.9-0.6-1.3C71.9,46.8,72.1,46.7,71.9,46.3z M72.1,55C72,55,72,55,72.1,55   c-0.2-0.5-0.3-1-0.4-1.5C71.8,54,71.9,54.5,72.1,55z M68.4,48.1c0.3,0.9,0.7,1.8,1.1,2.7c-0.4-0.7-0.8-1.4-1.2-2.1   C68.1,48.5,68.2,48,68.4,48.1z M68.2,44.8c0.1,0,0.1,0.1,0.2,0.1c0,0.1,0.1,0.2,0.1,0.3c0,0-0.1,0-0.1-0.1   C68.3,45,68.3,44.9,68.2,44.8z M68.4,46.6c0.5,1.1,1,2.1,1.4,3.2c0,0.1,0.1,0.2,0.1,0.4c0,0-0.1,0,0,0.1c0.1,0.2,0.1,0.4,0.2,0.5   c0,0,0,0-0.1,0C69.4,49.4,68.9,48,68.4,46.6z M69.9,48.5C69.9,48.5,70,48.5,69.9,48.5c0.2,0.1,0.3,0.3,0.3,0.4   c0.1,0.4,0.2,0.7,0.3,1C70.3,49.4,70.1,48.9,69.9,48.5z M70.4,51.5c0.1,0.3,0.1,0.5,0.2,0.8c-0.1-0.5-0.3-0.9-0.5-1.3   C70.2,51.2,70.3,51.3,70.4,51.5z M69.5,55.5c0.2,0.3,0.3,0.6,0.5,0.9c-0.1-0.2-0.3-0.4-0.4-0.5c-0.1-0.2-0.1-0.4-0.2-0.6   C69.4,55.4,69.5,55.4,69.5,55.5z M70.4,54.6C70.4,54.6,70.4,54.5,70.4,54.6c0.3,0.3,0.5,0.5,0.7,0.8c0,0.1,0.1,0.3,0.1,0.4   c-0.1-0.1-0.1-0.2-0.2-0.3C70.8,55.2,70.6,54.9,70.4,54.6C70.4,54.6,70.4,54.6,70.4,54.6z M71.6,56.3c0.1,0.2,0.3,0.4,0.4,0.6   c0.1,0.1,0.1,0.2,0.2,0.3v0.1c0,0,0,0,0,0.1c-0.4-0.5-0.8-1.1-1.3-1.6C71.1,56,71.4,56.2,71.6,56.3z M71.9,47.6   c0.2,0.4,0.4,0.8,0.7,1.2c0.1,0.4,0.1,0.8,0.2,1.2c-0.1,0-0.1,0-0.1,0c-0.1-0.2-0.3-0.5-0.4-0.7C72.2,48.7,72.1,48.2,71.9,47.6z    M72.5,49.8c0,0,0,0.1,0,0.2c0.1,0.3,0.3,0.5,0.4,0.8c0,0.2,0.1,0.4,0.1,0.6c-0.1,0-0.2,0.1-0.1,0.3c0.1,0.1,0.1,0.2,0.2,0.3   c0,0.1,0,0.1,0,0.2c-0.1-0.2-0.2-0.4-0.3-0.6c0,0,0-0.1,0-0.2c-0.1-0.2-0.1-0.3-0.2-0.5c-0.1-0.4-0.1-0.9-0.2-1.3   C72.4,49.7,72.5,49.7,72.5,49.8z M73.1,54.6c0.3,1,0.7,2,1.2,2.9c-0.1-0.1-0.2-0.2-0.3-0.4c-0.4-0.8-0.8-1.6-1.2-2.4   c0,0,0-0.1-0.1-0.1C72.9,54.7,73.1,54.8,73.1,54.6z M75.2,54.2c-0.5-1-1-1.9-1.5-2.9c-0.1-0.8-0.3-1.6-0.4-2.5   c0.2,0.5,0.4,1,0.6,1.5c-0.1-0.5-0.2-1-0.3-1.6c-0.2-0.5-0.3-1-0.5-1.4c-0.1-0.4-0.2-0.8-0.3-1.3c0.8,1.7,1.3,3.6,1.6,5.5   c0,0.1,0.1,0.3,0.2,0.4c0.1,0.3,0.2,0.7,0.3,1c0,0,0,0.1,0.1,0.1c0,0.3,0.2,0.4,0.4,0.6c0.3,0.5,0.6,1,0.9,1.4   C75.9,54.7,75.6,54.5,75.2,54.2z M74.1,46.5c-0.4-1.1-0.9-2.2-1.4-3.3c0.2,0.4,0.4,0.7,0.6,1.1c0,0,0,0,0.1,0   c0.1,0.2,0.1,0.4,0.1,0.6c0.2,0.3,0.4,0.7,0.6,1C74.1,45.9,74.3,46.3,74.1,46.5z M70.8,38.8c0.2,0.3,0.5,0.7,0.7,1   C71.2,39.4,71,39.1,70.8,38.8z M70.8,38.7c0.1,0.6,0.3,1.2,0.6,1.8C71,39.7,70.5,39,70,38.2c-0.1-0.3-0.2-0.6-0.4-0.9   c-0.1-0.1-0.1-0.2-0.1-0.4C70,37.5,70.4,38.1,70.8,38.7z M66.4,36.9c-0.1-0.1-0.3-0.2-0.4-0.4c-1.3-1.2-2.7-2.3-4.3-3.1   c0-0.1-0.1-0.1-0.1-0.2c0.9,0.3,1.8,0.8,2.7,1.3C65,35.3,65.7,36.1,66.4,36.9z M61.9,34.1c0,0.1,0.1,0.1,0.1,0.2   c-0.6-0.2-1.1-0.4-1.7-0.5c-0.1,0-0.2-0.1-0.3-0.3c0.5,0,1,0,1.5,0.1C61.6,33.8,61.7,34,61.9,34.1z M60.5,35   c0.1,0.1,0.2,0.1,0.3,0.2c-0.6-0.1-1.3-0.2-1.9-0.3c-0.1,0-0.1,0.1-0.1,0.3c-0.5-0.2-0.9-0.4-1.4-0.6h-0.1l-0.1-0.1   c0.3,0,0.6,0,1,0c0.1-0.1,0.3-0.1,0.5,0C59.3,34.7,59.9,34.8,60.5,35z M59.9,37c-0.1,0-0.1,0-0.2,0c-0.9-0.4-1.8-0.8-2.7-1   c0,0,0,0,0,0.1c0.3,0.2,0.6,0.5,0.9,0.8h-0.1c-0.3-0.4-0.6-0.6-0.9-0.8c0,0,0-0.1,0-0.1c0,0-0.1,0-0.1,0h-0.1   c-0.5-0.3-0.9-0.6-1.4-0.9c0.3,0,0.6,0.1,1,0.1c0.1,0.1,0.2,0.1,0.2,0.2C57.6,35.7,58.8,36.3,59.9,37z M57.6,41   c0.3,0.4,0.7,0.7,1,1.1c-0.4-0.5-0.9-0.9-1.3-1.3C57.4,40.9,57.5,41,57.6,41z M57.6,45.8c0.3,0.4,0.5,0.9,0.7,1.3   c-0.1-0.1-0.2-0.3-0.4-0.4c-0.1-0.2-0.2-0.5-0.3-0.7C57.6,45.9,57.6,45.9,57.6,45.8z M59.4,42.5c0.4,0.4,0.8,0.7,1.2,1.1   c0.2,0.3,0.4,0.6,0.6,0.9c0-0.1,0-0.1,0-0.2c0.1,0.1,0.1,0.2,0.2,0.3c0,0.1,0,0.2,0,0.3c0.1,0.2,0.3,0.5,0.4,0.7   c0.1,0.1,0.2,0.3,0.3,0.4c0-0.1,0-0.3,0.1-0.4c0.1,0.1,0.1,0.2,0.2,0.4c0,0.1,0,0.3-0.1,0.4c0.2,0.4,0.5,0.7,0.7,1.1   c0-0.1,0-0.3,0-0.4c0.1,0.1,0.1,0.2,0.2,0.4c0.1,0.2,0.2,0.4,0.2,0.5s0,0.2,0,0.2c0.2,0.4,0.5,0.8,0.7,1.2c0.1,0.2,0.1,0.4,0.1,0.5   C63,47.3,61.3,44.8,59.4,42.5z M62.9,46.3c1,1.3,2.1,2.6,3,3.9c0,0,0,0,0,0.1c0,0.2,0.1,0.5,0.2,0.6c0.1,0.1,0.2,0.3,0.4,0.4   c0.3,0.4,0.6,1,1,1.6c-0.1,0-0.2,0-0.1,0.3c0.4,0.7,0.8,1.5,1.3,2.2c0,0.1,0.1,0.1,0.1,0.2c-0.3-0.2-0.6-0.5-0.9-0.7   c-0.6-1.1-1.1-2.2-1.7-3.2c0,0,0,0,0-0.1c-0.2-0.4-0.5-0.9-0.7-1.3v0.1c0-0.1-0.1-0.1-0.1-0.2v-0.1c-0.2-0.4-0.4-0.8-0.7-1.1v0.1   c-0.1-0.2-0.2-0.4-0.3-0.5C63.9,47.8,63.4,47.1,62.9,46.3z M67.7,54.6c-0.2-0.1-0.4-0.3-0.6-0.5c0-0.1,0-0.2,0.1-0.3   c0.1,0.2,0.2,0.3,0.3,0.5v0.1C67.6,54.4,67.6,54.5,67.7,54.6z M66.5,52.6c0,0.1,0,0.2-0.1,0.3c-0.1-0.1-0.2-0.3-0.3-0.5   c0-0.1,0-0.2,0-0.4C66.2,52.2,66.4,52.4,66.5,52.6z M75.1,62.2C75,62.4,75,62.5,75,62.6C75,62.4,75,62.3,75.1,62.2L75.1,62.2z    M74.7,63.4l-0.1-0.1C74.6,63.3,74.7,63.3,74.7,63.4z M76,57.3C76,57.3,76.1,57.4,76,57.3c0.1,0.1,0.1,0.1,0.1,0.1   C76.1,57.4,76.1,57.3,76,57.3z M75.7,46c-0.1-0.4-0.2-0.7-0.4-1.1c-1.1-4-2.8-7.5-6.2-10.5c0.7,0.5,1.4,1,2,1.6   C73.7,38.8,74.8,42.4,75.7,46z M68.8,34.2C68.8,34.2,68.8,34.2,68.8,34.2l-0.1-0.1C68.8,34.1,68.8,34.2,68.8,34.2z M61.1,32.1h0.1   c0.1,0.1,0.2,0.2,0.3,0.3c1,0.3,2,0.7,2.9,1.1c-0.1-0.1-0.2-0.5-0.2-0.7c-0.5-0.2-0.9-0.4-1.4-0.5c0.1,0,0.1,0,0.2,0h0.1   c0.3,0,0.6,0.1,0.9,0.2c0.1,0,0.2,0.1,0.3,0.2c1.6,0.4,3.1,1.2,4.3,2.4c-1.2-0.7-2.5-1.4-3.8-1.9c0.3,0.3,0.6,0.6,0.9,1   c0.7,0.3,1.4,0.7,2,1c0,0.1,0.1,0.3,0.2,0.4c0,0.1-0.1,0.2-0.2,0.1c-0.4-0.3-0.9-0.7-1.3-0.9c1,0.7,1.9,1.6,2.6,2.4   c-0.2-0.2-0.4-0.4-0.6-0.5c-0.2-0.2-0.4-0.3-0.6-0.5c-0.5-0.5-1-0.9-1.6-1.3c0.2,0.2,0.3,0.4,0.5,0.6c-0.4-0.3-0.7-0.6-1.1-0.9   c-0.1-0.1-0.1,0.1-0.1,0.3c-0.3-0.4-0.6-0.7-0.9-1c-1-0.4-2.1-0.7-3.4-0.8c0,0.1-0.1,0.1-0.3,0.1c-0.6,0-1.2,0.1-1.8,0.2   c0,0,0,0,0.1,0c0,0.1-0.1,0.1-0.1,0.1c-0.1,0-0.3,0-0.4,0c-1.1,0.2-2.2,0.5-3.3,0.9c-0.3,0.1-1.2-0.1-0.7-0.3c1.6-0.7,3.3-1,5-1.2   c-0.1-0.1-0.2-0.2-0.2-0.3C60,32.2,60.5,32.2,61.1,32.1z M52.7,33.7c0.3-0.2,0.6-0.3,0.8-0.4c0-0.1,0-0.1,0.1-0.2   c0.3-0.2,0.6-0.3,0.9-0.4c0.7-0.2,1.5-0.3,2.3-0.3c0.1,0,0.3,0,0.4-0.1c0.2,0,0.4,0,0.5,0.1c0.3,0,0.7,0,1,0c0.1,0,0.1,0,0.2,0.1   c-0.3,0-0.7,0-1,0c0,0.1,0,0.2-0.3,0.2c-1.4,0.2-2.8,0.4-4,1.1C53.3,34.1,52.3,33.9,52.7,33.7z M51.1,34.8c0.5,0,1,0,1.5,0   c0.2,0.1,0.4,0.3,0.6,0.4c0,0,0,0-0.1,0c-0.7-0.1-1.5-0.2-2.2,0C50.9,35,50.9,34.8,51.1,34.8z M54.3,40.9c-0.2-0.3-0.4-0.7-0.6-1   c-0.1-0.2-0.6-0.5-0.7-0.4c-0.5-0.8-1.1-1.5-1.9-2.1c1.2,0.7,2.2,1.8,3,3c0.2,0.2,0.3,0.5,0.4,0.7c0,0.1,0.1,0.2,0.1,0.3   c-0.1-0.1-0.1-0.2-0.2-0.3C54.4,41.1,54.4,41,54.3,40.9z M55.6,44.3c-0.1,0.1-0.1,0.3,0,0.5c-0.3-0.8-0.6-1.5-0.9-2.3   c0.3,0.6,0.6,1.1,1,1.7C55.6,44.2,55.5,44.2,55.6,44.3z M55.3,42.4c0.1,0.1,0.3,0.2,0.4,0.3c0,0.1,0.1,0.3,0.1,0.4   C55.7,42.9,55.5,42.6,55.3,42.4z M56.1,40.6c0.2,0.3,0.3,0.6,0.5,0.9c-0.3-0.4-0.5-0.7-0.8-1.1C55.9,40.3,56,40.3,56.1,40.6z    M56,41.4c0.2,0.3,0.4,0.5,0.6,0.8c-0.1-0.1-0.2,0-0.2,0.1c-0.1-0.1-0.1-0.2-0.2-0.3C56.1,41.9,56,41.6,56,41.4z M56.4,45.5   c0.1,0.2,0.2,0.4,0.3,0.5c0.1,0.3,0.2,0.6,0.3,0.9c0.1,0.6,0.2,1.2,0.5,1.7c0.2,0.4,0.4,0.9,0.6,1.3C57.3,48.6,56.7,47.1,56.4,45.5   z M58.6,51.9c-0.3-0.4-0.5-0.9-0.7-1.4c0.4,0.6,0.9,1.3,1.3,1.8c0.1,0.4,0.3,0.8,0.4,1.1C59.3,52.9,58.9,52.4,58.6,51.9z    M61.3,55.6c-0.1-0.1-0.1-0.2-0.1-0.2c0.1,0,0.1,0,0.2-0.2c0.1-0.1-0.1-0.3-0.3-0.5v-0.1c0.1,0.1,0.3,0.3,0.4,0.4   c0,0.1,0,0.1,0,0.2c0.1,0.3,0.2,0.7,0.4,1.1C61.7,56.1,61.5,55.8,61.3,55.6z M62.3,55.4c-1.1-1.3-2.1-2.6-2.9-4   c-0.5-0.9-0.9-1.8-1.3-2.7c0-0.1-0.3-0.4-0.5-0.5c-0.1-0.2-0.2-0.5-0.3-0.7c-0.3-0.6,0.1-0.8,0.4-0.2c0.5,1,1,2.1,1.6,3   c0,0,0-0.1,0-0.1c0.1,0.1,0.1,0.3,0.2,0.3c0,0.1,0,0.1,0,0.2c0.3,0.5,0.6,0.9,0.9,1.4c0.5,0.8,1,1.6,1.6,2.4c0,0,0,0.1,0.1,0.1   c0.3,0.4,0.6,0.8,0.9,1.3C62.7,55.8,62.5,55.6,62.3,55.4z M62.9,56.5c0.2,0.2,0.4,0.4,0.7,0.6c0.1,0.2,0.3,0.6,0.5,1   C63.6,57.6,63.2,57,62.9,56.5z M64.2,53.1c0.1,0.1,0.2,0.2,0.3,0.4v0.1c-0.1,0-0.1-0.1-0.2-0.1C64.3,53.3,64.3,53.2,64.2,53.1z    M65.3,59.5c-0.3-0.3-0.6-0.6-0.8-0.9c0.1,0.1,0.3,0.2,0.5,0.2c0.3,0.4,0.6,0.8,0.9,1.2C65.7,59.8,65.5,59.6,65.3,59.5z M65.5,57.5   c-0.2-0.2-0.4-0.4-0.5-0.6c0,0,0,0,0-0.1c0.2,0.3,0.4,0.6,0.7,0.8c0.1,0.2,0.3,0.4,0.5,0.6C65.9,57.9,65.7,57.7,65.5,57.5z    M66.3,57c0.1,0.1,0.1,0.1,0.2,0.1c0.5,0.6,1,1.2,1.6,1.8c-0.5-0.4-1-0.8-1.5-1.2C66.4,57.6,66.2,57.1,66.3,57z M69.1,62.2   c-0.3-0.2-0.6-0.4-0.9-0.6c-0.1,0-0.1-0.1-0.2-0.1c-0.4-0.3-0.7-0.6-1-1c0-0.1-0.1-0.1-0.1-0.2c0-0.1-0.1-0.4-0.3-0.6   c-0.1-0.1-0.2-0.2-0.3-0.4c0.8,0.8,1.7,1.4,2.7,2.1c0.1,0.1,0.2,0.2,0.3,0.3c0.1,0.2,0.2,0.4,0.4,0.5   C69.4,62.3,69.3,62.3,69.1,62.2z M69.8,59.8c0.2,0.3,0.4,0.5,0.5,0.8c-0.2-0.2-0.5-0.3-0.7-0.5c-0.7-0.7-1.4-1.5-2-2.3   c0.6,0.4,1.2,0.9,1.8,1.3V59c0.1,0.1,0.3,0.3,0.4,0.4c0.2,0.1,0.4,0.2,0.6,0.4c0.4,0.4,0.8,0.9,1.2,1.3c0.1,0.1,0.2,0.2,0.3,0.2   c0.2,0.3,0.4,0.6,0.6,0.9c-0.1,0-0.2,0-0.3,0.1c-0.1-0.3-0.3-0.5-0.4-0.8c-0.2-0.1-0.4-0.2-0.5-0.3c-0.4-0.5-0.7-0.9-0.9-1.3   C70.2,59.7,69.4,59.2,69.8,59.8z M71.3,64c0.8,0.4,1.6,0.8,2.4,1.2c0.3,0.1,0.5,0.2,0.8,0.3c0.2,0.1,0.4,0.2,0.6,0.3h0.1   c0.1,0.1,0.3,0.1,0.4,0.2c0.1,0,0.2,0.1,0.3,0.1c0.2,0.2,0.4,0.3,0.6,0.5C74.7,66,72.9,65,71.3,64z M76.9,65.8c0-0.1,0-0.3,0-0.3   s0-0.1-0.1-0.1c0.5,0.2,0.9,0.4,1.4,0.5c-0.1,0.1,0,0.3,0.1,0.5C77.8,66.2,77.4,66,76.9,65.8z M78.7,66.1c-0.1,0-0.1,0-0.2-0.1   C78.6,66,78.6,66,78.7,66.1z M80.2,66.6c-0.3-0.1-0.6-0.2-1-0.3c0.1,0,0.2,0,0.3,0C79.7,66.4,80,66.4,80.2,66.6   C80.3,66.5,80.3,66.5,80.2,66.6z M80.1,61.5c-0.6-0.6-1.2-1.2-1.8-1.8c-0.1-0.2-0.2-0.3-0.3-0.5c0.1,0.1,0.1,0.1,0.2,0.2   c-0.1-0.1-0.2-0.3-0.3-0.5c0.8,1,1.7,2,2.6,2.9c0,0.1,0,0.1,0.1,0.2C80.4,61.8,80.2,61.7,80.1,61.5z M80.6,67   C80.6,67,80.6,66.9,80.6,67L80.6,67c0.1-0.1,0-0.3-0.1-0.5c0.1,0,0.1,0.1,0.2,0.1c0.1,0,0.1,0,0.1,0c0,0.1,0.1,0.3,0.1,0.4   S80.8,67.1,80.6,67z M81.6,62.2c-1.3-1.2-2.4-2.4-3.5-3.8c-0.1-0.3-0.2-0.6-0.3-0.9c0.3,0.3,0.5,0.6,0.8,0.9c0.1,0.3,0.3,0.7,0.4,1   c0.8,1,1.7,1.9,2.7,2.7h-0.1c0.3,0.2,0.6,0.3,0.8,0.4C82.1,62.4,81.9,62.3,81.6,62.2z M79.6,59.7c0.1,0.1,0.3,0.2,0.4,0.2   c0.1,0.1,0.3,0.2,0.4,0.3c0.2,0.3,0.4,0.6,0.6,0.9C80.6,60.7,80.1,60.2,79.6,59.7z M82.3,62.1c0,0-0.1-0.1-0.1-0.2   c-0.2-0.3-0.4-0.6-0.7-0.9c0.4,0.3,0.8,0.5,1.2,0.8c0.1,0.1,0.1,0.1,0.1,0.2c0,0,0.1,0.1,0.2,0.2c0,0,0,0-0.1,0.1   c-0.1,0-0.3,0-0.4,0C82.4,62.2,82.3,62.2,82.3,62.1z M83.1,63.7c0,0.1-0.1,0.2-0.1,0.2C83,63.8,83,63.8,83.1,63.7L83.1,63.7z    M83.1,65.8c-0.1,0-0.3,0-0.4-0.1c0.1-0.1,0.2-0.2,0.2-0.3c0.1,0,0.2,0,0.3,0C83.1,65.5,83.1,65.6,83.1,65.8z M83.5,61.3   c-0.4-0.2-0.6-0.2-0.9-0.4c-0.5-0.3-1-0.7-1.5-1c-0.2-0.1-0.3-0.1-0.5-0.2c-0.1-0.1-0.2-0.3-0.2-0.4c-0.5-0.5-1-0.9-1.5-1.4   c0.2,0.3,0.3,0.6,0.5,0.8c-0.1-0.1-0.2-0.2-0.3-0.2c-0.9-1.4-1.9-2.8-2.7-4.2c0.1,0,0.1,0.1,0.2,0.1c0,0,0,0,0.1,0.1   c-0.5-1.3-0.9-2.6-1.4-3.8h0.1c0.1,0.3,0.2,0.5,0.3,0.8c0.1,0.4,0.3,0.8,0.4,1.2c0,0.1,0.1,0.1,0.2,0.2c0,0.1,0.1,0.2,0.1,0.3   c0.1,0.2,0.6,0.6,0.7,0.5c0,0.1,0,0.1-0.1,0.1c0.1,0.2,0.1,0.3,0.2,0.5c-0.3-0.1-0.5-0.1-0.2,0.3c0.3,0.4,0.6,0.7,0.8,1.1   c0.1,0.2,0.2,0.3,0.2,0.5c0.1,0.1,0.3,0.3,0.4,0.4c1.4,1.8,3,3.7,5.1,4.4C83.5,61.1,83.5,61.2,83.5,61.3z M83.9,61.1   c0.2-0.1,0.3-0.2,0.5-0.3c0.1,0,0.2,0.1,0.3,0.1c0,0.1-0.1,0.2-0.1,0.3c0,0,0,0-0.1,0c0-0.1-0.1-0.1-0.2-0.1   C84.1,61.2,84,61.2,83.9,61.1z M85.1,64.7c0.1,0,0.1-0.1,0.2-0.1c-0.1,0.3,0,0.7,0.1,0.6c0.2-0.2,0.4-0.5,0.6-0.8   c0,0.2-0.1,0.7-0.3,0.8c-0.5,0.3-1,0.6-1.6,0.8C84.5,65.6,84.8,65.2,85.1,64.7z M84.3,67.5c0-0.1,0-0.2,0.1-0.3   c0.1,0.1,0.3,0.2,0.5,0.3C84.7,67.5,84.5,67.5,84.3,67.5z M85.1,67.1c-0.1,0-0.1,0.1-0.1,0.2c-0.1-0.1-0.1-0.2-0.2-0.3   C84.9,67,85,67,85.1,67.1c-0.1-0.4,0.1-0.8,0.3-0.8c0.3,0,0.6-0.1,0.9-0.1C86,66.5,85.6,66.8,85.1,67.1z M86,63.3   c0.1-0.3,0.3-0.5,0.4-0.8c0-0.1,0.1-0.2,0.1-0.3c0.2-0.1,0.4-0.2,0.6-0.2c-0.2,0.4-0.5,0.8-0.8,1.2C86.3,63.2,86.2,63.3,86,63.3z    M87.8,65.7c-0.1,0.2-0.1,0.3-0.2,0.4c-0.3,0.1-0.5,0.3-0.8,0.4c0.4-0.5,0.8-1.1,1.1-1.7c0.1-0.1,0.2-0.1,0.3-0.2   c-0.1,0-0.1-0.1-0.2-0.1v-0.1c0.1,0.1,0.1,0.1,0.2,0.2C88.2,64.9,88,65.3,87.8,65.7z M88.3,63.9c0-0.1,0-0.2,0-0.2l-0.1-0.1   c0.2-0.1,0.5-0.3,0.7-0.5C89,63,89,63,89.1,62.9h0.1c-0.2,0.4-0.4,0.8-0.5,1.2C88.5,64.1,88.4,64,88.3,63.9z M89.4,64.6   c0,0.1-0.1,0.1-0.2,0.2c0.2-0.4,0.3-0.8,0.5-1.2l0.1-0.1c0.1-0.1,0.2-0.1,0.2-0.1C89.8,63.8,89.7,64.2,89.4,64.6z M91.4,63.5   c0,0.1-0.4,1.1-0.4,1c-0.1-0.3-0.4,0.5-0.4,0.8c-0.1-0.1-0.1-0.1-0.2-0.2c0.3-0.8,0.6-1.6,0.9-2.4c0.1-0.1,0.1-0.1,0.2-0.2   C91.4,62.9,91.4,63.2,91.4,63.5z M92,62.9c0,0.1,0,0.1-0.1,0.2c0.2-0.2,0.3-0.3,0.5-0.5c-0.1,0.2-0.1,0.3-0.2,0.5   c0,0.1-0.1,0.2,0,0.4l-0.1,0.1c-0.1,0.1-0.1,0.2-0.2,0.3L91.8,64c0-0.7,0.1-1.3,0.1-2c0.5-0.6,0.9-1.3,1.1-2c0,0.5-0.1,1.1-0.3,1.6   c-0.3,0.4-0.5,0.8-0.8,1.2C91.9,62.8,91.9,62.8,92,62.9z M92.7,62.8c0.1-0.3,0.2-0.6,0.3-0.9c0.1-0.1,0.2,0,0.2,0.2   C93.1,62.3,92.9,62.6,92.7,62.8z"/><path d="M91.1,51.6c0-0.1,0-0.2-0.1-0.2c-0.1,0-0.1-0.1-0.2-0.1c0.1,0.2,0.1,0.3,0.2,0.5C91,51.7,91,51.7,91.1,51.6z"/><path d="M90.8,51.2c-0.1-0.2-0.2-0.1-0.2-0.1C90.7,51.2,90.7,51.2,90.8,51.2C90.8,51.3,90.8,51.2,90.8,51.2z"/><path d="M94.4,61.6c0,0,0-0.1,0.1-0.2C94.4,61.5,94.4,61.6,94.4,61.6z"/><path d="M70.1,40.6C70.1,40.6,70.1,40.6,70.1,40.6c0,0,0,0.1,0,0.1C70.2,40.6,70.1,40.6,70.1,40.6z"/><path d="M56.9,36C56.9,36,57,36,56.9,36C57,36,57,36,56.9,36z"/><path d="M28.1,50.8c0.2-0.5,0.4-1,0.5-1.5c-0.1,0.2-0.2,0.5-0.3,0.7c0,0,0.1,0.1,0,0.2c-0.1,0.3-0.3,0.5-0.4,0.8c0,0,0,0.1,0,0.1   C28,51,28.1,50.9,28.1,50.8z"/><path d="M55.8,32.6c-0.4,0-0.8,0-1.3,0.1c0,0,0,0.1,0,0.2C54.9,32.8,55.4,32.7,55.8,32.6z"/><path d="M64.3,32.7C64.3,32.7,64.3,32.7,64.3,32.7c-0.1,0-0.2-0.1-0.3-0.1C64.1,32.6,64.2,32.7,64.3,32.7z"/><path d="M60.8,32.8c-0.4,0-0.7,0.1-1.1,0.1c0.1,0.1,0.1,0.1,0.2,0.1c0.1,0,0.2,0,0.3,0h0.1c0.3,0,0.6,0.1,0.9,0.1   C61.3,33,61,32.8,60.8,32.8z"/><path d="M72.9,44.8C72.9,44.7,72.9,44.7,72.9,44.8C72.9,44.7,72.9,44.8,72.9,44.8C72.9,44.8,72.9,44.8,72.9,44.8z"/><path d="M29.4,46.6c0.1-0.3,0.2-0.6,0.3-0.8C29.6,46.1,29.5,46.3,29.4,46.6z"/><path d="M21.1,58.2C21.1,58.2,21.1,58.2,21.1,58.2c0.1-0.1,0.1-0.1,0.1-0.2C21.2,58.1,21.2,58.1,21.1,58.2z"/><path d="M40.9,50.2c0,0.1-0.1,0.1-0.1,0.2C40.9,50.3,40.9,50.3,40.9,50.2z"/><path d="M60.6,49.7C60.6,49.7,60.6,49.8,60.6,49.7c0.1,0.1,0.1,0.1,0.1,0.1L60.6,49.7z"/><path d="M32.6,40.6c-0.1,0.1-0.2,0.2-0.2,0.2c0,0,0,0,0,0c0,0,0,0,0,0C32.4,40.8,32.6,40.7,32.6,40.6   C32.7,40.6,32.6,40.6,32.6,40.6z"/></g></svg>